<?xml version="1.0" encoding="utf-8"?>
<!-- Generator: Adobe Illustrator 16.0.0, SVG Export Plug-In . SVG Version: 6.00 Build 0)  -->
<!DOCTYPE svg PUBLIC "-//W3C//DTD SVG 1.1//EN" "http://www.w3.org/Graphics/SVG/1.1/DTD/svg11.dtd">
<svg version="1.1" id="Layer_1" xmlns="http://www.w3.org/2000/svg" xmlns:xlink="http://www.w3.org/1999/xlink" x="0px" y="0px"
	 width="180px" height="180px" viewBox="0 0 180 180" enable-background="new 0 0 180 180" xml:space="preserve">
<g id="Layer_1_1_">
	<rect fill="#F2F1F0" width="180" height="180"/>
	<g>
		<g enable-background="new    ">
			<path fill="#0055B8" d="M65.429,159.634c-0.906,0.375-1.852,0.563-2.836,0.563c-1.531,0-2.78-0.515-3.746-1.543
				c-0.966-1.028-1.449-2.371-1.449-4.027c0-1.817,0.523-3.274,1.57-4.371s2.377-1.645,3.992-1.645c0.859,0,1.682,0.138,2.469,0.414
				v0.82c-0.787-0.354-1.615-0.531-2.484-0.531c-1.406,0-2.55,0.477-3.43,1.43c-0.88,0.953-1.32,2.222-1.32,3.805
				c0,1.526,0.42,2.73,1.262,3.613c0.841,0.883,1.907,1.324,3.199,1.324c1.031,0,1.956-0.2,2.773-0.602V159.634z"/>
			<path fill="#0055B8" d="M72.546,160.001v-1.602h-0.031c-0.255,0.547-0.626,0.983-1.113,1.309
				c-0.487,0.325-1.027,0.488-1.621,0.488c-0.761,0-1.362-0.214-1.805-0.641c-0.443-0.427-0.664-0.966-0.664-1.617
				c0-1.396,0.924-2.239,2.773-2.531l2.461-0.367c0-1.719-0.646-2.578-1.938-2.578c-0.88,0-1.737,0.354-2.57,1.063v-0.867
				c0.297-0.234,0.699-0.435,1.207-0.602s0.985-0.25,1.434-0.25c0.823,0,1.459,0.255,1.91,0.766c0.45,0.511,0.676,1.253,0.676,2.227
				v5.203H72.546z M70.343,156.017c-0.839,0.12-1.427,0.313-1.766,0.582c-0.339,0.269-0.508,0.704-0.508,1.309
				c0,0.474,0.157,0.864,0.473,1.172c0.315,0.308,0.754,0.461,1.316,0.461c0.771,0,1.411-0.285,1.922-0.855
				c0.51-0.57,0.766-1.306,0.766-2.207v-0.781L70.343,156.017z"/>
			<path fill="#0055B8" d="M78.835,159.892c-0.375,0.177-0.727,0.266-1.055,0.266c-1.183,0-1.773-0.708-1.773-2.125v-5.375H74.57
				v-0.656h1.438v-2.078c0.114-0.042,0.234-0.083,0.359-0.125c0.125-0.036,0.245-0.075,0.359-0.117v2.32h2.109v0.656h-2.109v5.281
				c0,0.552,0.087,0.952,0.262,1.199c0.174,0.247,0.47,0.371,0.887,0.371c0.297,0,0.617-0.097,0.961-0.289V159.892z"/>
			<path fill="#0055B8" d="M85.203,160.001v-1.602h-0.031c-0.255,0.547-0.626,0.983-1.113,1.309
				c-0.487,0.325-1.027,0.488-1.621,0.488c-0.761,0-1.362-0.214-1.805-0.641c-0.443-0.427-0.664-0.966-0.664-1.617
				c0-1.396,0.924-2.239,2.773-2.531l2.461-0.367c0-1.719-0.646-2.578-1.938-2.578c-0.88,0-1.737,0.354-2.57,1.063v-0.867
				c0.297-0.234,0.699-0.435,1.207-0.602s0.985-0.25,1.434-0.25c0.823,0,1.459,0.255,1.91,0.766c0.45,0.511,0.676,1.253,0.676,2.227
				v5.203H85.203z M83,156.017c-0.839,0.12-1.427,0.313-1.766,0.582c-0.339,0.269-0.508,0.704-0.508,1.309
				c0,0.474,0.157,0.864,0.473,1.172c0.315,0.308,0.754,0.461,1.316,0.461c0.771,0,1.411-0.285,1.922-0.855
				c0.51-0.57,0.766-1.306,0.766-2.207v-0.781L83,156.017z M82.671,150.72h-0.703l1.828-2.563h0.813L82.671,150.72z"/>
			<path fill="#0055B8" d="M88.328,160.001v-11.844h0.719v11.844H88.328z"/>
			<path fill="#0055B8" d="M94.82,160.196c-1.168,0-2.09-0.384-2.77-1.152s-1.02-1.767-1.02-2.996c0-1.328,0.355-2.367,1.066-3.117
				s1.646-1.125,2.809-1.125c1.141,0,2.041,0.372,2.703,1.117c0.66,0.745,0.992,1.776,0.992,3.094c0,1.245-0.338,2.253-1.012,3.023
				C96.914,159.811,95.992,160.196,94.82,160.196z M94.875,152.462c-0.943,0-1.695,0.317-2.254,0.953
				c-0.561,0.636-0.84,1.519-0.84,2.648c0,1.047,0.273,1.888,0.82,2.523s1.293,0.953,2.242,0.953c0.963,0,1.705-0.313,2.227-0.938
				c0.52-0.625,0.781-1.492,0.781-2.602c0-1.141-0.26-2.016-0.777-2.625C96.555,152.767,95.822,152.462,94.875,152.462z"/>
			<path fill="#0055B8" d="M106.984,159.407c0,1.505-0.328,2.606-0.984,3.305s-1.678,1.047-3.063,1.047
				c-0.771,0-1.566-0.203-2.383-0.609v-0.75c0.844,0.469,1.643,0.703,2.398,0.703c2.207,0,3.313-1.167,3.313-3.5v-1.039h-0.031
				c-0.631,1.089-1.592,1.633-2.883,1.633c-0.984,0-1.789-0.356-2.41-1.07c-0.623-0.714-0.934-1.708-0.934-2.984
				s0.336-2.317,1.008-3.125s1.557-1.211,2.656-1.211c1.176,0,2.031,0.487,2.563,1.461h0.031v-1.266h0.719V159.407z
				 M106.266,155.071c0-0.708-0.238-1.32-0.715-1.836s-1.098-0.773-1.863-0.773c-0.881,0-1.59,0.331-2.125,0.992
				c-0.537,0.661-0.805,1.536-0.805,2.625c0,1.094,0.246,1.944,0.738,2.551s1.141,0.91,1.949,0.91c0.859,0,1.543-0.278,2.055-0.836
				c0.51-0.558,0.766-1.239,0.766-2.047V155.071z"/>
			<path fill="#0055B8" d="M112.758,160.196c-1.168,0-2.09-0.384-2.77-1.152s-1.02-1.767-1.02-2.996
				c0-1.328,0.355-2.367,1.066-3.117s1.646-1.125,2.809-1.125c1.141,0,2.041,0.372,2.703,1.117c0.66,0.745,0.992,1.776,0.992,3.094
				c0,1.245-0.338,2.253-1.012,3.023C114.852,159.811,113.93,160.196,112.758,160.196z M112.813,152.462
				c-0.943,0-1.695,0.317-2.254,0.953c-0.561,0.636-0.84,1.519-0.84,2.648c0,1.047,0.273,1.888,0.82,2.523s1.293,0.953,2.242,0.953
				c0.963,0,1.705-0.313,2.227-0.938c0.52-0.625,0.781-1.492,0.781-2.602c0-1.141-0.26-2.016-0.777-2.625
				C114.492,152.767,113.76,152.462,112.813,152.462z"/>
			<path fill="#0055B8" d="M118.109,159.649v-0.867c0.27,0.234,0.598,0.419,0.984,0.555c0.385,0.136,0.719,0.203,1,0.203
				c1.254,0,1.883-0.513,1.883-1.539c0-0.354-0.139-0.656-0.414-0.906c-0.277-0.25-0.725-0.508-1.344-0.773
				c-0.766-0.333-1.305-0.679-1.613-1.035c-0.311-0.356-0.465-0.79-0.465-1.301c0-0.651,0.248-1.177,0.746-1.578
				c0.496-0.401,1.109-0.602,1.84-0.602c0.688,0,1.275,0.141,1.766,0.422v0.813c-0.594-0.386-1.209-0.578-1.844-0.578
				c-0.527,0-0.951,0.137-1.273,0.41c-0.324,0.273-0.484,0.629-0.484,1.066c0,0.38,0.102,0.688,0.305,0.926s0.65,0.509,1.344,0.816
				c0.832,0.375,1.406,0.723,1.719,1.043s0.469,0.746,0.469,1.277c0,0.636-0.238,1.16-0.715,1.574s-1.135,0.621-1.973,0.621
				C119.268,160.196,118.625,160.014,118.109,159.649z"/>
		</g>
	</g>
	<g>
		<g>
			<polygon fill="#6C94D5" points="96.663,51.224 93.175,43.245 69.537,43.245 62.989,43.245 62.989,48.091 69.537,48.091 
				89.368,48.091 92.85,56.068 131.191,56.068 131.191,78.943 131.191,90.503 136.104,90.503 136.104,78.943 136.104,51.224 			"/>
			<polygon fill="#2174C7" points="86.628,52.27 69.537,52.27 62.989,52.27 58.816,52.27 56.447,52.27 56.447,57.11 58.816,57.11 
				62.989,57.11 69.537,57.11 82.819,57.11 86.301,65.09 122.105,65.09 122.105,78.943 122.105,90.503 122.105,94.682 
				122.105,102.064 127.016,102.064 127.016,94.682 127.016,90.503 127.016,78.943 127.016,60.246 90.115,60.246 			"/>
			<polygon fill="#0055B8" points="83.568,69.269 80.081,61.294 49.899,61.294 49.899,69.269 49.899,70.564 49.899,113.63 
				117.932,113.63 117.932,69.269 			"/>
		</g>
	</g>
</g>
<g id="Layer_2" display="none">
	
		<rect x="-400" y="160" display="inline" fill="none" stroke="#ED2424" stroke-width="0.5" stroke-miterlimit="10" width="580" height="20"/>
	
		<rect x="-400" y="140" display="inline" fill="none" stroke="#ED2424" stroke-width="0.5" stroke-miterlimit="10" width="580" height="20"/>
	
		<rect x="-400" display="inline" fill="none" stroke="#ED2424" stroke-width="0.5" stroke-miterlimit="10" width="580" height="20"/>
</g>
<g id="Layer_3" display="none">
</g>
</svg>
