<?xml version="1.0" encoding="utf-8"?>
<!-- Generator: Adobe Illustrator 16.0.0, SVG Export Plug-In . SVG Version: 6.00 Build 0)  -->
<!DOCTYPE svg PUBLIC "-//W3C//DTD SVG 1.1//EN" "http://www.w3.org/Graphics/SVG/1.1/DTD/svg11.dtd">
<svg version="1.1" id="Layer_1" xmlns="http://www.w3.org/2000/svg" xmlns:xlink="http://www.w3.org/1999/xlink" x="0px" y="0px"
	 width="150.072px" height="148.494px" viewBox="0 0 150.072 148.494" enable-background="new 0 0 150.072 148.494"
	 xml:space="preserve">
<g id="Layer_1_1_">
	<rect x="0" y="0.035" fill="#F2F1F0" width="150.072" height="148.493"/>
	<g>
		<g enable-background="new    ">
			<path fill="#0055B8" d="M55.708,128.052c0,3.114-1.328,4.672-3.984,4.672c-2.526,0-3.789-1.5-3.789-4.5v-6.898H48.7v6.789
				c0,2.599,1.057,3.898,3.172,3.898c2.047,0,3.07-1.263,3.07-3.789v-6.898h0.766V128.052z"/>
			<path fill="#0055B8" d="M57.872,132.177v-0.867c0.271,0.234,0.599,0.419,0.984,0.555c0.385,0.136,0.719,0.203,1,0.203
				c1.255,0,1.883-0.513,1.883-1.539c0-0.354-0.138-0.656-0.414-0.906c-0.276-0.25-0.724-0.508-1.344-0.773
				c-0.766-0.333-1.304-0.679-1.613-1.035c-0.31-0.356-0.465-0.79-0.465-1.301c0-0.651,0.249-1.177,0.746-1.578
				c0.497-0.401,1.11-0.602,1.84-0.602c0.688,0,1.276,0.141,1.766,0.422v0.813c-0.594-0.386-1.208-0.578-1.844-0.578
				c-0.526,0-0.951,0.137-1.273,0.41c-0.323,0.273-0.484,0.629-0.484,1.066c0,0.38,0.102,0.688,0.305,0.926s0.651,0.509,1.344,0.816
				c0.833,0.375,1.406,0.723,1.719,1.043s0.469,0.746,0.469,1.277c0,0.636-0.238,1.16-0.715,1.574s-1.134,0.621-1.973,0.621
				C59.031,132.724,58.388,132.541,57.872,132.177z"/>
			<path fill="#0055B8" d="M69.779,132.528v-1.453h-0.031c-0.558,1.099-1.417,1.648-2.578,1.648c-1.891,0-2.836-1.19-2.836-3.57
				v-4.625h0.727v4.445c0,1.083,0.178,1.87,0.535,2.359c0.356,0.489,0.918,0.734,1.684,0.734c0.745,0,1.348-0.273,1.809-0.82
				s0.691-1.276,0.691-2.188v-4.531h0.719v8H69.779z"/>
			<path fill="#0055B8" d="M77.841,132.528v-1.602h-0.031c-0.255,0.547-0.626,0.983-1.113,1.309
				c-0.486,0.325-1.027,0.488-1.621,0.488c-0.761,0-1.362-0.214-1.805-0.641c-0.443-0.427-0.664-0.966-0.664-1.617
				c0-1.396,0.924-2.239,2.773-2.531l2.46-0.367c0-1.719-0.646-2.578-1.938-2.578c-0.88,0-1.737,0.354-2.57,1.063v-0.867
				c0.297-0.234,0.699-0.435,1.207-0.602s0.985-0.25,1.433-0.25c0.823,0,1.46,0.255,1.91,0.766c0.451,0.511,0.676,1.253,0.676,2.227
				v5.203H77.841z M75.637,128.544c-0.838,0.12-1.427,0.313-1.765,0.582c-0.339,0.269-0.508,0.704-0.508,1.309
				c0,0.474,0.157,0.864,0.473,1.172c0.315,0.308,0.754,0.461,1.316,0.461c0.771,0,1.412-0.285,1.921-0.855
				c0.511-0.57,0.766-1.306,0.766-2.207v-0.781L75.637,128.544z"/>
			<path fill="#0055B8" d="M84.739,125.278c-0.239-0.172-0.521-0.258-0.844-0.258c-0.63,0-1.158,0.325-1.586,0.977
				c-0.427,0.651-0.641,1.575-0.641,2.773v3.758h-0.703v-8h0.703v1.773H81.7c0.183-0.609,0.472-1.083,0.867-1.422
				c0.396-0.339,0.854-0.508,1.375-0.508c0.297,0,0.563,0.047,0.797,0.141V125.278z"/>
			<path fill="#0055B8" d="M86.598,122.513c-0.156,0-0.294-0.058-0.414-0.172c-0.119-0.114-0.18-0.261-0.18-0.438
				c0-0.172,0.062-0.312,0.184-0.418c0.123-0.106,0.26-0.16,0.41-0.16c0.162,0,0.304,0.052,0.426,0.156
				c0.123,0.104,0.184,0.245,0.184,0.422c0,0.167-0.06,0.31-0.18,0.43C86.909,122.453,86.765,122.513,86.598,122.513z
				 M86.247,132.528v-8h0.719v8H86.247z"/>
			<path fill="#0055B8" d="M92.739,132.724c-1.166,0-2.09-0.384-2.77-1.152s-1.02-1.767-1.02-2.996c0-1.328,0.355-2.367,1.066-3.117
				s1.647-1.125,2.809-1.125c1.141,0,2.042,0.372,2.703,1.117c0.662,0.745,0.992,1.776,0.992,3.094c0,1.245-0.337,2.253-1.012,3.023
				C94.835,132.338,93.911,132.724,92.739,132.724z M92.794,124.989c-0.942,0-1.693,0.317-2.254,0.953
				c-0.56,0.636-0.84,1.519-0.84,2.648c0,1.047,0.273,1.888,0.82,2.523s1.295,0.953,2.242,0.953c0.964,0,1.706-0.313,2.227-0.938
				c0.521-0.625,0.781-1.492,0.781-2.602c0-1.141-0.259-2.016-0.777-2.625C94.475,125.294,93.742,124.989,92.794,124.989z"/>
			<path fill="#0055B8" d="M98.091,132.177v-0.867c0.271,0.234,0.6,0.419,0.984,0.555c0.386,0.136,0.719,0.203,1,0.203
				c1.256,0,1.883-0.513,1.883-1.539c0-0.354-0.138-0.656-0.414-0.906c-0.275-0.25-0.724-0.508-1.344-0.773
				c-0.766-0.333-1.303-0.679-1.613-1.035c-0.31-0.356-0.465-0.79-0.465-1.301c0-0.651,0.249-1.177,0.746-1.578
				c0.498-0.401,1.111-0.602,1.84-0.602c0.688,0,1.276,0.141,1.766,0.422v0.813c-0.594-0.386-1.208-0.578-1.844-0.578
				c-0.525,0-0.95,0.137-1.273,0.41c-0.322,0.273-0.484,0.629-0.484,1.066c0,0.38,0.102,0.688,0.305,0.926s0.651,0.509,1.344,0.816
				c0.834,0.375,1.406,0.723,1.719,1.043s0.469,0.746,0.469,1.277c0,0.636-0.238,1.16-0.715,1.574s-1.134,0.621-1.973,0.621
				C99.25,132.724,98.606,132.541,98.091,132.177z"/>
		</g>
	</g>
	<g>
		<g>
			<g>
				<g>
					<path fill="#0055B8" d="M81.749,38.882c6.942,3.905,9.241,13.164,4.842,19.823c-3.943,5.965-12.048,7.993-18.327,4.542
						c-6.94-3.818-9.314-12.96-5.045-19.666C67.11,37.456,75.391,35.309,81.749,38.882z"/>
				</g>
				<g>
					<path fill="#0055B8" d="M74.962,97.983c-8.515,0-23.152,0-23.152,0c0.42-3.514,1.574-15.675,3.472-18.672
						c8.923-12.678,30.442-12.676,39.366,0.003c1.898,2.999,3.468,18.669,3.468,18.669S83.476,97.983,74.962,97.983z"/>
				</g>
			</g>
			<g>
				<path fill="#006CC3" d="M41.287,71.976c4.251,2.337,9.741,0.963,12.41-3.077c2.981-4.51,1.424-10.78-3.279-13.425
					c-4.304-2.419-9.912-0.965-12.548,3.183C34.98,63.198,36.587,69.39,41.287,71.976z"/>
			</g>
			<g>
				<path fill="#006CC3" d="M48.679,96.145c0.994-8.89,1.944-14.926,3.603-17.546l0.091-0.138c0.043-0.063,0.092-0.119,0.136-0.181
					c-7.712-3.379-17.897-1.53-22.887,5.56c-1.437,2.271-2.311,11.481-2.631,14.144c0,0,11.088,0,17.538,0c1.186,0,2.533,0,3.935,0
					l0.047-0.399C48.559,97.204,48.615,96.715,48.679,96.145z"/>
			</g>
			<g>
				<path fill="#4E84CE" d="M99.56,71.976c4.251,2.337,9.741,0.963,12.41-3.077c2.98-4.51,1.424-10.78-3.279-13.425
					c-4.306-2.419-9.912-0.965-12.548,3.183C93.252,63.198,94.86,69.39,99.56,71.976z"/>
			</g>
			<g>
				<path fill="#4E84CE" d="M123.08,97.983c0,0-1.197-11.939-2.645-14.225c-5.021-7.131-15.263-8.993-23.021-5.597
					c0.046,0.064,0.097,0.123,0.142,0.188l0.091,0.137c2.01,3.174,3.324,14.458,3.795,19.159l0.035,0.338c1.411,0,2.766,0,3.961,0
					C111.925,97.983,123.08,97.983,123.08,97.983z"/>
			</g>
		</g>
	</g>
</g>
<g id="Layer_2" display="none">
	<g display="inline">
		
			<rect x="-400.416" y="132.494" fill="none" stroke="#77777A" stroke-width="0.5" stroke-miterlimit="10" width="706.396" height="16"/>
		
			<rect x="-400.416" y="93.638" fill="none" stroke="#77777A" stroke-width="0.5" stroke-miterlimit="10" width="558.625" height="34.999"/>
		
			<rect x="-400.416" y="0.095" fill="none" stroke="#77777A" stroke-width="0.5" stroke-miterlimit="10" width="558.625" height="35"/>
		
			<rect x="-400.416" y="128.637" fill="none" stroke="#77777A" stroke-width="0.5" stroke-miterlimit="10" width="706.396" height="3.857"/>
	</g>
</g>
<g id="Layer_3">
</g>
</svg>
