<?xml version="1.0" encoding="utf-8"?>
<!-- Generator: Adobe Illustrator 16.0.0, SVG Export Plug-In . SVG Version: 6.00 Build 0)  -->
<!DOCTYPE svg PUBLIC "-//W3C//DTD SVG 1.0//EN" "http://www.w3.org/TR/2001/REC-SVG-20010904/DTD/svg10.dtd">
<svg version="1.0" xmlns="http://www.w3.org/2000/svg" xmlns:xlink="http://www.w3.org/1999/xlink" x="0px" y="0px" width="35px"
	 height="35px" viewBox="0 0 35 35" enable-background="new 0 0 35 35" xml:space="preserve">
<g id="Layer_1">
	<path fill="#0055B8" d="M29.499,17.49c0-1.592-0.318-3.195-0.936-4.66c-0.004,0.002-0.008,0.005-0.013,0.008
		c-1.228-2.915-3.507-5.188-6.425-6.407c0.006-0.007,0.01-0.011,0.012-0.015C18.089,4.72,13.282,5.415,9.892,8.205
		C9.89,8.209,9.888,8.209,9.888,8.21C9.413,8.607,8.612,9.184,8.327,9.758c-0.334,0.331-0.57,0.754-0.85,1.126
		c-1.645,2.484-2.295,5.56-1.83,8.5c0.215,1.37,0.674,2.7,1.346,3.913c0.338,0.608,0.73,1.189,1.17,1.73
		c0.223,0.275,0.457,0.539,0.703,0.793c0.1,0.103,0.729,0.576,0.729,0.692c0,0,0.695,0.543,1.078,0.799
		c0.502,0.361,1.537,0.953,1.537,0.953c1.01,0.338,1.924,0.804,2.988,1.01c1.225,0.243,2.484,0.29,3.725,0.14
		c2.396-0.291,4.668-1.315,6.482-2.907c0,0.001,0,0.002,0,0.003c0.184-0.221,0.443-0.392,0.646-0.598
		c0-0.002-0.004-0.003-0.006-0.004c2.191-2.225,3.453-5.268,3.453-8.395l0,0c0-0.004,0-0.008,0-0.01
		C29.499,17.498,29.499,17.494,29.499,17.49z M13.862,10.991c1.205-1.897,3.771-2.562,5.74-1.456c2.148,1.211,2.861,4.078,1.5,6.141
		c-1.225,1.849-3.734,2.477-5.68,1.407C13.274,15.9,12.538,13.068,13.862,10.991C14.052,10.694,13.437,11.66,13.862,10.991z
		 M17.499,28.842c-2.818,0-5.535-1.008-7.664-2.84c0.139-1.164,0.521-2.349,1.148-3.342c2.953-4.197,10.08-4.195,13.031,0.002
		c0.629,0.992,1.01,2.176,1.148,3.34C23.034,27.834,20.315,28.842,17.499,28.842z"/>
</g>
<g id="Layer_2">
</g>
<g id="MEdidas" display="none">
</g>
<g id="Layer_5">
</g>
<g id="Mensajes_error" display="none">
</g>
</svg>
