<?xml version="1.0" encoding="utf-8"?>
<!-- Generator: Adobe Illustrator 21.0.2, SVG Export Plug-In . SVG Version: 6.00 Build 0)  -->
<svg version="1.1" id="Capa_1" xmlns="http://www.w3.org/2000/svg" xmlns:xlink="http://www.w3.org/1999/xlink" x="0px" y="0px"
	 width="188.4px" height="71.5px" viewBox="0 0 188.4 71.5" style="enable-background:new 0 0 188.4 71.5;" xml:space="preserve">
<style type="text/css">
	.st0{fill:#F2F1F0;}
	.st1{display:none;}
	.st2{enable-background:new    ;}
	.st3{fill:#79A3D4;}
	.st4{font-family:'Leelawadee';}
	.st5{font-size:16px;}
	.st6{fill:#FFFFFF;}
	.st7{fill:#F4843B;}
</style>
<g>
	<g>
		<g id="Layer_1_23_">
			<g>
				<rect class="st0" width="188.4" height="71.5"/>
			</g>
		</g>
	</g>
</g>
<g id="Layer_2" class="st1">
</g>
<g id="Layer_3" class="st1">
</g>
<text transform="matrix(1 0 0 1 114.9036 32.7854)" class="st2"><tspan x="0" y="0" class="st3 st4 st5">Entidad </tspan><tspan x="7" y="19.2" class="st3 st4 st5">INEGI </tspan></text>
<path class="st6" d="M22.6,22.4c-0.1,0-0.3,0-0.3-0.1c-0.1-0.1-0.1-0.3-0.2-0.5c0.2,0,0.5-0.1,0.6-0.1c0.1,0.1,0.1,0.3,0.1,0.5
	C22.7,22.3,22.6,22.3,22.6,22.4C22.4,22.4,22.6,22.4,22.6,22.4z"/>
<path class="st6" d="M62.2,62.4c-0.5,0.3-0.8,0.8-1.3,1.1c0,0,0,0-0.1-0.1C61.3,63.1,61.8,62.6,62.2,62.4
	C62.1,62.3,62.2,62.4,62.2,62.4z"/>
<path class="st7" d="M108.5,41.4c-0.2,0.7-0.6,1.4-0.7,2.2c-0.3,1.7-1.2,3-2.6,4.2c-2.8,2.3-5.4,4.6-8.1,7c-0.7,0.6-0.7,0.9-0.3,1.6
	c0.2,0.3,0.4,0.7,0.5,1c0.4,0.7,0.2,0.9-0.6,0.9c-1.1,0-2.2,0.1-3.2,0c-1.4-0.1-2.5,0.3-3.3,1.2c-0.3,0.3-0.6,0.5-0.9,0.8
	c-0.5,0.4-1,0.4-1.6,0.1c-2-1.1-4.1-2.1-6.1-3.1c-0.8-0.4-1.5-0.4-2.4-0.3c-4.3,0.8-8.6,1.6-12.9,2.3c-0.8,0.1-1.4,0-2-0.4
	c-4.5-2.7-9-5.5-13.5-8.2c-0.7-0.4-1.1-1-1.3-1.6c-0.7-2-1.4-4-2-6.1C47,41,46,39.5,44.8,38c-3.1-3.9-6-7.9-9.1-11.8
	c-1.3-1.7-2.6-3.4-3.9-5.1c-0.7-1-1.7-1.2-2.8-1c-0.6,0.1-0.8,0.5-0.5,1.1c0.5,1.1,1.1,2.2,1.6,3.4c2.5,5.4,5.1,10.8,7.6,16.3
	c0.3,0.6,0.6,1.2,0.8,1.8c0.3,0.6,0.1,0.9-0.6,1.2c-0.4,0.2-0.8,0.3-1.1,0.5c-0.7,0.3-1.1,0.3-1.5-0.4c-1.3-1.9-2.6-3.8-4-5.7
	c-1.5-2.2-3-4.4-4.6-6.5c-0.9-1.2-2.3-2.1-3.5-3.1c-0.8-0.7-1.5-1.3-2.5-2.1c1.1,0,2.1,0,3,0c0.9,0,1.2-0.4,1-1.1
	c-1.3-4.3-2.7-8.6-4-13c0-0.1-0.1-0.3-0.2-0.4c0-0.2,0-0.4,0-0.6c0.3-0.1,0.6-0.2,0.9-0.2c2.4,0,4.8,0,7.2,0c0.6,0,1.4,0.2,1.9,0.6
	c1.9,1.2,3.8,2.6,5.7,3.9c0.6,0.4,1.3,0.7,2,0.7c1.4,0,2.9,0,4.3,0c0.5,0,0.6-0.2,0.7-0.6c0.1-1.9,0.2-2,2.4-2c1.5,0,3.1,0,4.6,0
	c0.8,0,1.4,0.2,1.9,0.8c1.5,1.7,3.1,3.4,4.7,5.1c0.3,0.3,0.8,0.5,1.2,0.5c1.3,0.1,2.6,0.1,3.9,0c1.1-0.1,1.9,0.3,2.5,1.1
	c1.3,1.5,2.6,3,3.8,4.6c1.2,1.5,2.5,2.9,3.7,4.4c0.7,0.8,1,1.6,0.9,2.5c-0.3,2.7-0.2,5.4,0.2,8.1c0.4,2.6,1.2,5.1,3,7.3
	c1.9,2.3,4.4,3.4,7.6,3.4c2.3,0,4.5-0.1,6.7-0.8c2.7-0.8,4.8-2.2,5.6-4.7c0.6-1.9,1.9-3.4,3.2-4.9c0.2-0.3,0.9-0.5,1.3-0.5
	c2.4-0.1,4.7,0,7.1,0c0.3,0,0.6,0.2,1,0.3C108.5,40.9,108.5,41.1,108.5,41.4z"/>
</svg>
