<?xml version="1.0" encoding="utf-8"?>
<!-- Generator: Adobe Illustrator 21.0.2, SVG Export Plug-In . SVG Version: 6.00 Build 0)  -->
<svg version="1.1" id="Capa_1" xmlns="http://www.w3.org/2000/svg" xmlns:xlink="http://www.w3.org/1999/xlink" x="0px" y="0px"
	 width="188.4px" height="71.5px" viewBox="0 0 188.4 71.5" style="enable-background:new 0 0 188.4 71.5;" xml:space="preserve">
<style type="text/css">
	.st0{fill:#F2F1F0;}
	.st1{fill:#F89250;}
	.st2{fill:#F4843B;}
	.st3{fill:#EF7622;}
	.st4{display:none;}
	.st5{fill:#79A3D4;}
	.st6{font-family:'Leelawadee';}
	.st7{font-size:16px;}
</style>
<g>
	<g>
		<g id="Layer_1_24_">
			<g>
				<rect class="st0" width="188.4" height="71.5"/>
			</g>
		</g>
	</g>
</g>
<g>
	<g>
		<g>
			<polygon class="st1" points="58.4,20 55.2,20 55.2,38.9 58.4,33.8 			"/>
			<polygon class="st2" points="60,54.4 60,54.4 63.7,54.4 63.7,48.7 			"/>
			<polygon class="st2" points="63.7,21.5 60.4,21.5 60.4,30.6 63.7,25.4 			"/>
			<path class="st1" d="M27,18.5v38.3h22.2l-9.5-8.7l8.1-8.6l4.4,4.1l1-1.6V18.5H27z M32.5,22.5h14.9v2.2H32.5V22.5z M50.9,36.6
				H28.8v-2.2h22.1V36.6z M50.9,31.3H28.8v-2.2h22.1V31.3z"/>
		</g>
	</g>
	<polygon class="st3" points="54.3,56.8 44.6,48 47.9,44.4 52.9,49.1 64.9,30 68.9,34.2 	"/>
</g>
<g id="Layer_2" class="st4">
</g>
<g id="Layer_3" class="st4">
</g>
<text transform="matrix(1 0 0 1 99.5335 43.3904)" class="st5 st6 st7">Motivo</text>
</svg>
