<?xml version="1.0" encoding="utf-8"?>
<!-- Generator: Adobe Illustrator 21.0.2, SVG Export Plug-In . SVG Version: 6.00 Build 0)  -->
<svg version="1.1" id="Layer_1" xmlns="http://www.w3.org/2000/svg" xmlns:xlink="http://www.w3.org/1999/xlink" x="0px" y="0px"
	 width="188.4px" height="71.5px" viewBox="0 0 188.4 71.5" style="enable-background:new 0 0 188.4 71.5;" xml:space="preserve">
<style type="text/css">
	.st0{fill:#F2F1F0;}
	.st1{fill:#0055B8;}
	.st2{fill:#EF7622;}
	.st3{display:none;}
	.st4{fill:#79A3D4;}
	.st5{font-family:'Leelawadee';}
	.st6{font-size:16px;}
</style>
<g id="Layer_1_16_">
	<g>
		<rect class="st0" width="188.4" height="71.5"/>
	</g>
</g>
<g>
	<path class="st1" d="M56.8,15.6c0.2,0,0.6,0,1.4,0.1c0.3,0,0.5,0,0.6,0C58.6,15.7,57.2,15.6,56.8,15.6z"/>
	<path class="st1" d="M58.9,15.7C58.9,15.7,58.9,15.7,58.9,15.7C58.9,15.7,58.9,15.7,58.9,15.7z"/>
	<path class="st1" d="M56.8,15.6C56.8,15.6,56.8,15.6,56.8,15.6C56.8,15.6,56.8,15.6,56.8,15.6z"/>
	<path class="st1" d="M56.8,15.6C56.7,15.6,56.7,15.6,56.8,15.6L56.8,15.6z"/>
	<path class="st2" d="M58.3,15.7c-19.9-1.1-47.9,26-21.1,38c13.2,5.9,27.5,3.9,35.9-8.5C80.7,34.1,71.3,16.4,58.3,15.7z M62.2,29.3
		l-1.6,1.2l-2.3-2.7L56,30.5l-1.6-1.2l1.8-3L53,25l0.6-1.9l3.4,0.8l0.3-3.5h2l0.2,3.6l3.5-0.9l0.6,1.9l-3.3,1.3L62.2,29.3z"/>
	<path class="st1" d="M58.9,15.7C58.9,15.7,58.9,15.7,58.9,15.7L58.9,15.7z"/>
</g>
<g id="Layer_2" class="st3">
</g>
<g id="Layer_3" class="st3">
</g>
<text transform="matrix(1 0 0 1 96.5335 44.3904)" class="st4 st5 st6">Municipio</text>
</svg>
