<?xml version="1.0" encoding="utf-8"?>
<!-- Generator: Adobe Illustrator 21.0.2, SVG Export Plug-In . SVG Version: 6.00 Build 0)  -->
<svg version="1.1" id="Capa_1" xmlns="http://www.w3.org/2000/svg" xmlns:xlink="http://www.w3.org/1999/xlink" x="0px" y="0px"
	 width="188.4px" height="71.5px" viewBox="0 0 188.4 71.5" style="enable-background:new 0 0 188.4 71.5;" xml:space="preserve">
<style type="text/css">
	.st0{fill:#F2F1F0;}
	.st1{display:none;}
	.st2{enable-background:new    ;}
	.st3{fill:#79A3D4;}
	.st4{font-family:'Leelawadee';}
	.st5{font-size:16px;}
	.st6{fill:#0055B8;}
</style>
<g>
	<g>
		<g id="Layer_1_23_">
			<g>
				<rect y="1.1" class="st0" width="188.4" height="71.5"/>
			</g>
		</g>
	</g>
</g>
<g id="Layer_2" class="st1">
</g>
<g id="Layer_3" class="st1">
</g>
<path d="M-446.2-235.4c0,4.5,0,8.9,0,13.9c2.9,0.1,5.6,0.2,8.3,0.4c0,0.1,0,0.2,0,0.4c-2.8,0-5.6,0-8.8,0c0-5.1,0-10.1,0-15.1
	C-446.5-235.7-446.3-235.6-446.2-235.4z"/>
<text transform="matrix(1 0 0 1 112.04 34.702)" class="st2"><tspan x="0" y="0" class="st3 st4 st5">Partido </tspan><tspan x="1.3" y="19.2" class="st3 st4 st5">Político</tspan></text>
<g>
	<path class="st6" d="M93.1,46.9c-1.8,0.6-3.7,1.3-5.5,1.9c-0.3,0.1-0.6,0.2-1.1,0.4c-0.9-2-1.8-3.9-2.8-5.9
		c-1.1,3.9-3.2,7.1-6.3,9.7c2.2,0.1,4.2,0.2,6.4,0.3c0.1,2.4,0.2,4.7,0.3,7c-7.1-0.8-12.6,1.2-16.1,6.1c-2.2-1.5-4.4-2.9-6.8-4.5
		c1.2-1.4,2.5-2.8,3.7-4.1c-2-0.1-4-0.2-6.2-0.3c-0.1-2.4-0.2-4.6-0.3-7c1,0.1,2,0.1,3.1,0.2c-1.2-2-1.5-3.9-0.7-5.6
		c0.5-1.2,1.4-2,2.7-2.5c1.6-0.6,3.3-0.5,5.1,0.3c1.8,0.7,3.1,2,4.2,3.7c1-1.6,2-3,3-4.6c-2.5-0.2-4.6-1.3-6.2-3.2
		c-1.1-1.3-1.6-2.7-1.6-4.1c0-1.8,0.7-3.1,2.2-4.1c1.4-0.9,3.2-1,5.2-0.6c-0.5-1.6-2.2-4.5-3.3-5.5c-1,1.8-2.6,2.8-5.1,2.7
		c-1.6,0-3.1-0.6-4.5-1.6c-1.7-1.2-2.7-2.7-3-4.5c-0.4-1.8,0.1-3.2,1.3-4.5c-1.3-0.4-2.5-0.6-3.7-1c-0.1-2.2-0.1-4.4-0.2-6.8
		c1.9,0.5,3.7,0.9,5.5,1.4c-1.2-1.6-2.4-3.3-3.7-5C60.8,4.6,62.9,3.8,65,3c4,6.1,9.6,9.9,16.8,11.3c0.1,2.3,0.1,4.5,0.2,6.9
		c-1.9-0.5-3.6-0.9-5.4-1.4c1.3,1.7,2.6,3.4,3.7,5.2c1.1,1.8,1.9,3.7,2.8,5.6c0.4-0.9,0.7-1.9,1.1-2.8c0.3-0.7,0.6-1.3,1-1.9
		c0.1-0.2,0.6-0.3,0.8-0.2c2.1,1.3,4.1,2.7,6.1,4c-0.5,1.1-1,2.2-1.4,3.3c-1.3,4.2-0.7,8.6,1.8,13.1c0.1,0.2,0.3,0.4,0.5,0.6
		C93.1,46.8,93.1,46.8,93.1,46.9z"/>
	<path class="st6" d="M21.6,24.6c1.8-0.6,3.7-1.3,5.5-1.9c0.3-0.1,0.6-0.2,1.1-0.4c0.9,2,1.8,3.9,2.8,5.9c1.1-3.9,3.2-7.1,6.3-9.7
		c-2.2-0.1-4.2-0.2-6.4-0.3c-0.1-2.4-0.2-4.7-0.3-7c7.1,0.8,12.6-1.2,16.1-6.1C49,6.6,51.1,8,53.5,9.6c-1.2,1.4-2.5,2.8-3.7,4.1
		c2,0.1,4,0.2,6.2,0.3c0.1,2.4,0.2,4.6,0.3,7c-1-0.1-2-0.1-3.1-0.2c1.2,2,1.5,3.9,0.7,5.6c-0.5,1.2-1.4,2-2.7,2.5
		c-1.6,0.6-3.3,0.5-5.1-0.3c-1.8-0.7-3.1-2-4.2-3.7c-1,1.6-2,3-3,4.6c2.5,0.2,4.6,1.2,6.2,3.1c1.1,1.3,1.6,2.7,1.6,4.1
		c0,1.8-0.7,3.1-2.2,4.1c-1.4,0.9-3.2,1-5.2,0.6c0.5,1.6,2.2,4.5,3.3,5.5c1-1.8,2.6-2.8,5.1-2.7c1.6,0,3.1,0.6,4.5,1.6
		c1.7,1.2,2.7,2.7,3,4.5c0.4,1.8-0.1,3.2-1.3,4.5c1.3,0.4,2.5,0.6,3.7,1c0.1,2.2,0.2,4.4,0.2,6.8c-1.9-0.5-3.7-0.9-5.5-1.4
		c1.2,1.6,2.4,3.3,3.7,5c-2.2,0.8-4.3,1.6-6.5,2.4c-4-6.1-9.6-9.9-16.8-11.3c-0.1-2.3-0.1-4.5-0.2-6.9c1.9,0.5,3.6,0.9,5.4,1.3
		c-1.3-1.7-2.6-3.4-3.7-5.2c-1.1-1.8-1.9-3.7-2.8-5.6c-0.4,0.9-0.7,1.9-1.1,2.8c-0.3,0.7-0.6,1.3-1,1.9c-0.1,0.2-0.6,0.3-0.8,0.2
		c-2.1-1.3-4.1-2.7-6.1-4c0.5-1.1,1-2.2,1.4-3.3c1.3-4.2,0.7-8.6-1.8-13.1c-0.1-0.2-0.3-0.4-0.5-0.6C21.5,24.7,21.5,24.7,21.6,24.6z
		"/>
</g>
</svg>
