<?xml version="1.0" encoding="utf-8"?>
<!-- Generator: Adobe Illustrator 16.0.0, SVG Export Plug-In . SVG Version: 6.00 Build 0)  -->
<!DOCTYPE svg PUBLIC "-//W3C//DTD SVG 1.1//EN" "http://www.w3.org/Graphics/SVG/1.1/DTD/svg11.dtd">
<svg version="1.1" id="Layer_1" xmlns="http://www.w3.org/2000/svg" xmlns:xlink="http://www.w3.org/1999/xlink" x="0px" y="0px"
	 width="188.445px" height="71.52px" viewBox="0 0 188.445 71.52" enable-background="new 0 0 188.445 71.52" xml:space="preserve">
<g id="Layer_1_1_">
	<g id="Layer_1_57_">
		<g>
			<rect x="0" y="0" fill="#F2F1F0" width="188.445" height="71.52"/>
		</g>
	</g>
	<g>
		<g enable-background="new    ">
			<path fill="#0055B7" d="M95.746,34.355v4.492h-0.773V27.644h2.703c1.15,0,2.031,0.267,2.641,0.801s0.914,1.313,0.914,2.34
				c0,1.042-0.34,1.897-1.02,2.566s-1.632,1.004-2.855,1.004H95.746z M95.746,28.355v5.289h1.594c1.01,0,1.778-0.241,2.305-0.723
				c0.525-0.481,0.789-1.163,0.789-2.043c0-1.683-0.967-2.523-2.898-2.523H95.746z"/>
			<path fill="#0055B7" d="M107.293,31.597c-0.24-0.172-0.521-0.258-0.844-0.258c-0.631,0-1.159,0.325-1.586,0.977
				c-0.428,0.651-0.641,1.575-0.641,2.773v3.758h-0.703v-8h0.703v1.773h0.031c0.182-0.609,0.471-1.083,0.867-1.422
				c0.396-0.339,0.854-0.508,1.375-0.508c0.297,0,0.563,0.047,0.797,0.141V31.597z"/>
			<path fill="#0055B7" d="M111.691,39.042c-1.167,0-2.09-0.384-2.77-1.152s-1.02-1.767-1.02-2.996c0-1.328,0.355-2.367,1.066-3.117
				s1.646-1.125,2.809-1.125c1.141,0,2.041,0.372,2.703,1.117c0.661,0.745,0.992,1.776,0.992,3.094c0,1.245-0.338,2.253-1.012,3.023
				C113.786,38.656,112.863,39.042,111.691,39.042z M111.746,31.308c-0.943,0-1.694,0.317-2.254,0.953
				c-0.561,0.636-0.84,1.519-0.84,2.648c0,1.047,0.273,1.888,0.82,2.523s1.294,0.953,2.242,0.953c0.963,0,1.705-0.313,2.227-0.938
				c0.521-0.625,0.781-1.492,0.781-2.602c0-1.141-0.26-2.016-0.777-2.625C113.427,31.613,112.693,31.308,111.746,31.308z"/>
			<path fill="#0055B7" d="M120.527,27.761c-0.193-0.151-0.484-0.227-0.875-0.227c-0.984,0-1.477,0.661-1.477,1.984v1.328h2.117
				v0.656h-2.117v7.344h-0.719v-7.344h-1.438v-0.656h1.438v-1.391c0-0.844,0.212-1.484,0.637-1.922
				c0.424-0.438,0.954-0.656,1.59-0.656c0.338,0,0.619,0.05,0.844,0.148V27.761z"/>
			<path fill="#0055B7" d="M121.613,34.878c0,1.099,0.254,1.958,0.762,2.578s1.204,0.93,2.09,0.93c0.896,0,1.771-0.331,2.625-0.992
				v0.766c-0.828,0.589-1.753,0.883-2.773,0.883c-1.031,0-1.865-0.37-2.5-1.109c-0.636-0.739-0.953-1.784-0.953-3.133
				c0-1.167,0.332-2.149,0.996-2.949s1.527-1.199,2.59-1.199c0.994,0,1.758,0.349,2.289,1.047s0.797,1.651,0.797,2.859v0.32H121.613
				z M126.785,34.222c-0.031-0.922-0.253-1.638-0.664-2.148c-0.412-0.511-0.979-0.766-1.703-0.766c-0.75,0-1.371,0.251-1.863,0.754
				s-0.796,1.223-0.91,2.16H126.785z"/>
			<path fill="#0055B7" d="M129.105,38.495v-0.867c0.271,0.234,0.599,0.419,0.984,0.555c0.385,0.136,0.719,0.203,1,0.203
				c1.255,0,1.883-0.513,1.883-1.539c0-0.354-0.139-0.656-0.414-0.906c-0.276-0.25-0.725-0.508-1.344-0.773
				c-0.766-0.333-1.304-0.679-1.613-1.035c-0.311-0.356-0.465-0.79-0.465-1.301c0-0.651,0.248-1.177,0.746-1.578
				c0.497-0.401,1.11-0.602,1.84-0.602c0.688,0,1.275,0.141,1.766,0.422v0.813c-0.594-0.386-1.209-0.578-1.844-0.578
				c-0.526,0-0.951,0.137-1.273,0.41c-0.323,0.273-0.484,0.629-0.484,1.066c0,0.38,0.102,0.688,0.305,0.926s0.65,0.509,1.344,0.816
				c0.833,0.375,1.406,0.723,1.719,1.043s0.469,0.746,0.469,1.277c0,0.636-0.238,1.16-0.715,1.574s-1.135,0.621-1.973,0.621
				C130.263,39.042,129.621,38.86,129.105,38.495z"/>
			<path fill="#0055B7" d="M136.082,28.831c-0.156,0-0.295-0.058-0.414-0.172c-0.12-0.114-0.18-0.261-0.18-0.438
				c0-0.172,0.061-0.312,0.184-0.418c0.122-0.106,0.259-0.16,0.41-0.16c0.161,0,0.303,0.052,0.426,0.156
				c0.122,0.104,0.184,0.245,0.184,0.422c0,0.167-0.061,0.31-0.18,0.43C136.391,28.772,136.248,28.831,136.082,28.831z
				 M135.73,38.847v-8h0.719v8H135.73z"/>
			<path fill="#0055B7" d="M142.222,39.042c-1.167,0-2.09-0.384-2.77-1.152s-1.02-1.767-1.02-2.996c0-1.328,0.355-2.367,1.066-3.117
				s1.646-1.125,2.809-1.125c1.141,0,2.041,0.372,2.703,1.117c0.661,0.745,0.992,1.776,0.992,3.094c0,1.245-0.338,2.253-1.012,3.023
				C144.317,38.656,143.394,39.042,142.222,39.042z M142.277,31.308c-0.943,0-1.694,0.317-2.254,0.953
				c-0.561,0.636-0.84,1.519-0.84,2.648c0,1.047,0.273,1.888,0.82,2.523s1.294,0.953,2.242,0.953c0.963,0,1.705-0.313,2.227-0.938
				c0.521-0.625,0.781-1.492,0.781-2.602c0-1.141-0.26-2.016-0.777-2.625C143.958,31.613,143.224,31.308,142.277,31.308z
				 M141.957,29.566h-0.703l1.828-2.563h0.813L141.957,29.566z"/>
			<path fill="#0055B7" d="M153.426,38.847v-4.656c0-1.922-0.693-2.883-2.078-2.883c-0.771,0-1.404,0.282-1.898,0.848
				c-0.495,0.565-0.742,1.265-0.742,2.098v4.594h-0.719v-8h0.719V32.3h0.031c0.583-1.099,1.494-1.648,2.734-1.648
				c0.864,0,1.525,0.288,1.984,0.863c0.458,0.575,0.688,1.397,0.688,2.465v4.867H153.426z"/>
		</g>
	</g>
	<g>
		<path fill="#EF7622" d="M65.443,28.826v-8.499H36.371v8.499H28.54v8.368l17.495,4.458h2.137v-1.417h5.741v1.417h1.865
			l17.497-4.458v-8.368H65.443z M40.061,28.826v-4.91h21.69v4.91H40.061z"/>
		<polygon fill="#EF7622" points="53.913,43.58 53.913,45.004 48.172,45.004 48.172,43.563 45.676,43.557 28.54,39.19 28.54,52.515 
			73.275,52.515 73.275,39.19 56.02,43.587 		"/>
	</g>
</g>
<g id="Layer_2" display="none">
</g>
<g id="Layer_3" display="none">
</g>
</svg>
