<?xml version="1.0" encoding="utf-8"?>
<!-- Generator: Adobe Illustrator 16.0.0, SVG Export Plug-In . SVG Version: 6.00 Build 0)  -->
<!DOCTYPE svg PUBLIC "-//W3C//DTD SVG 1.1//EN" "http://www.w3.org/Graphics/SVG/1.1/DTD/svg11.dtd">
<svg version="1.1" id="Layer_1" xmlns="http://www.w3.org/2000/svg" xmlns:xlink="http://www.w3.org/1999/xlink" x="0px" y="0px"
	 width="188.445px" height="71.52px" viewBox="0 0 188.445 71.52" enable-background="new 0 0 188.445 71.52" xml:space="preserve">
<g id="Layer_1_1_">
	<g id="Layer_1_56_">
		<g>
			<rect x="0" y="0" fill="#F2F1F0" width="188.445" height="71.52"/>
		</g>
	</g>
	<g>
		<g enable-background="new    ">
			<path fill="#0055B7" d="M95.747,34.479v4.492h-0.773V27.768h2.703c1.151,0,2.031,0.267,2.641,0.801s0.914,1.313,0.914,2.34
				c0,1.042-0.34,1.897-1.02,2.566s-1.632,1.004-2.855,1.004H95.747z M95.747,28.479v5.289h1.594c1.011,0,1.778-0.241,2.305-0.723
				s0.789-1.163,0.789-2.043c0-1.683-0.966-2.523-2.898-2.523H95.747z"/>
			<path fill="#0055B7" d="M108.802,38.971v-1.453h-0.031c-0.558,1.099-1.417,1.648-2.578,1.648c-1.891,0-2.836-1.19-2.836-3.57
				v-4.625h0.727v4.445c0,1.083,0.179,1.87,0.535,2.359s0.918,0.734,1.684,0.734c0.745,0,1.348-0.273,1.809-0.82
				s0.691-1.276,0.691-2.188v-4.531h0.719v8H108.802z"/>
			<path fill="#0055B7" d="M112.255,35.002c0,1.099,0.254,1.958,0.762,2.578s1.204,0.93,2.09,0.93c0.896,0,1.771-0.331,2.625-0.992
				v0.766c-0.828,0.589-1.753,0.883-2.773,0.883c-1.031,0-1.864-0.37-2.5-1.109s-0.953-1.784-0.953-3.133
				c0-1.167,0.332-2.149,0.996-2.949s1.527-1.199,2.59-1.199c0.995,0,1.758,0.349,2.289,1.047s0.797,1.651,0.797,2.859v0.32H112.255
				z M117.427,34.346c-0.031-0.922-0.253-1.638-0.664-2.148s-0.979-0.766-1.703-0.766c-0.75,0-1.371,0.251-1.863,0.754
				s-0.796,1.223-0.91,2.16H117.427z"/>
			<path fill="#0055B7" d="M119.747,38.619v-0.867c0.271,0.234,0.599,0.419,0.984,0.555s0.719,0.203,1,0.203
				c1.255,0,1.883-0.513,1.883-1.539c0-0.354-0.138-0.656-0.414-0.906s-0.724-0.508-1.344-0.773
				c-0.766-0.333-1.304-0.679-1.613-1.035s-0.465-0.79-0.465-1.301c0-0.651,0.249-1.177,0.746-1.578s1.11-0.602,1.84-0.602
				c0.688,0,1.276,0.141,1.766,0.422v0.813c-0.594-0.386-1.208-0.578-1.844-0.578c-0.526,0-0.95,0.137-1.273,0.41
				s-0.484,0.629-0.484,1.066c0,0.38,0.102,0.688,0.305,0.926s0.651,0.509,1.344,0.816c0.833,0.375,1.406,0.723,1.719,1.043
				s0.469,0.746,0.469,1.277c0,0.636-0.238,1.16-0.715,1.574s-1.134,0.621-1.973,0.621
				C120.906,39.166,120.262,38.984,119.747,38.619z"/>
			<path fill="#0055B7" d="M129.536,38.862c-0.375,0.177-0.727,0.266-1.055,0.266c-1.183,0-1.773-0.708-1.773-2.125v-5.375h-1.438
				v-0.656h1.438v-2.078c0.114-0.042,0.234-0.083,0.359-0.125c0.125-0.036,0.245-0.075,0.359-0.117v2.32h2.109v0.656h-2.109v5.281
				c0,0.552,0.087,0.952,0.262,1.199s0.47,0.371,0.887,0.371c0.297,0,0.617-0.097,0.961-0.289V38.862z"/>
			<path fill="#0055B7" d="M134.333,39.166c-1.167,0-2.09-0.384-2.77-1.152s-1.02-1.767-1.02-2.996c0-1.328,0.355-2.367,1.066-3.117
				s1.647-1.125,2.809-1.125c1.141,0,2.042,0.372,2.703,1.117s0.992,1.776,0.992,3.094c0,1.245-0.337,2.253-1.012,3.023
				S135.505,39.166,134.333,39.166z M134.387,31.432c-0.942,0-1.694,0.317-2.254,0.953s-0.84,1.519-0.84,2.648
				c0,1.047,0.273,1.888,0.82,2.523s1.294,0.953,2.242,0.953c0.964,0,1.706-0.313,2.227-0.938s0.781-1.492,0.781-2.602
				c0-1.141-0.259-2.016-0.777-2.625S135.336,31.432,134.387,31.432z"/>
		</g>
	</g>
	<g>
		<path opacity="0.8" fill="#EF7622" enable-background="new    " d="M69.755,39.743c-2.354,0-4.268-1.912-4.268-4.269
			s1.914-4.265,4.268-4.265c2.361,0,4.268,1.907,4.268,4.265C74.021,37.831,72.116,39.743,69.755,39.743z"/>
		<path fill="#EF7622" d="M47.96,26.981c-2.352,0-4.264-1.91-4.264-4.268c0-2.355,1.912-4.268,4.264-4.268
			c2.361,0,4.267,1.911,4.267,4.268C52.226,25.071,50.321,26.981,47.96,26.981z"/>
		<circle opacity="0.8" fill="#EF7622" enable-background="new    " cx="47.96" cy="35.476" r="4.266"/>
		<circle opacity="0.8" fill="#EF7622" enable-background="new    " cx="47.96" cy="49.749" r="4.266"/>
		<path fill="#0055B8" d="M46.165,40.567v4.235c0.535-0.146,1.103-0.234,1.682-0.234c0.669,0,1.309,0.106,1.91,0.302v-4.367
			c-0.603,0.193-1.241,0.296-1.91,0.296C47.267,40.798,46.7,40.714,46.165,40.567z"/>
		<path fill="#0055B8" d="M46.165,27.664v2.497c0.535-0.147,1.103-0.236,1.682-0.236c0.669,0,1.309,0.107,1.91,0.301V27.6
			c-0.603,0.195-1.241,0.296-1.91,0.296C47.267,27.896,46.7,27.813,46.165,27.664z"/>
		<path opacity="0.8" fill="#EF7622" enable-background="new    " d="M74.021,49.749c0,2.354-1.905,4.267-4.268,4.267
			c-2.354,0-4.268-1.911-4.268-4.267c0-2.357,1.914-4.269,4.268-4.269C72.116,45.481,74.021,47.392,74.021,49.749z"/>
		<path fill="#0055B8" d="M67.96,40.567v4.235c0.535-0.146,1.101-0.234,1.681-0.234c0.666,0,1.306,0.106,1.909,0.302v-4.367
			c-0.604,0.193-1.243,0.296-1.909,0.296C69.06,40.798,68.495,40.714,67.96,40.567z"/>
		<circle opacity="0.8" fill="#EF7622" enable-background="new    " cx="26.255" cy="35.476" r="4.268"/>
		<circle opacity="0.8" fill="#EF7622" enable-background="new    " cx="26.255" cy="49.749" r="4.268"/>
		<path fill="#0055B8" d="M24.462,40.567v4.235c0.533-0.146,1.099-0.234,1.679-0.234c0.665,0,1.311,0.106,1.911,0.302v-4.367
			c-0.602,0.193-1.246,0.296-1.911,0.296C25.56,40.798,24.995,40.714,24.462,40.567z"/>
		<path fill="#0055B8" d="M42.853,33.681H31.239c0.166,0.569,0.264,1.172,0.264,1.795s-0.098,1.225-0.264,1.797h11.613
			c-0.168-0.572-0.269-1.174-0.269-1.797S42.685,34.25,42.853,33.681z"/>
		<path fill="#0055B8" d="M64.606,33.681c-0.168,0.569-0.267,1.172-0.267,1.795s0.099,1.225,0.267,1.797
			c-0.168-0.572-0.261-1.174-0.261-1.797S64.438,34.25,64.606,33.681z"/>
		<path fill="#0055B8" d="M64.606,33.681h-4.01h-3.594h-4.011c0.17,0.569,0.266,1.172,0.266,1.795s-0.096,1.225-0.266,1.797h11.613
			c-0.168-0.572-0.267-1.174-0.267-1.797S64.438,34.25,64.606,33.681z"/>
	</g>
</g>
<g id="Layer_2" display="none">
</g>
<g id="Layer_3" display="none">
</g>
</svg>
