<?xml version="1.0" encoding="utf-8"?>
<!-- Generator: Adobe Illustrator 21.0.2, SVG Export Plug-In . SVG Version: 6.00 Build 0)  -->
<svg version="1.1" id="Layer_1" xmlns="http://www.w3.org/2000/svg" xmlns:xlink="http://www.w3.org/1999/xlink" x="0px" y="0px"
	 width="360px" height="180px" viewBox="0 0 360 180" style="enable-background:new 0 0 360 180;" xml:space="preserve">
<style type="text/css">
	.st0{fill:#F2F1F0;}
	.st1{display:none;}
	.st2{display:inline;}
	.st3{fill:none;stroke:#ED2424;stroke-width:0.5;stroke-miterlimit:10;}
	.st4{fill:#0055B8;}
	.st5{font-family:'Leelawadee';}
	.st6{font-size:18px;}
	.st7{fill:#EF7622;}
	.st8{fill:none;stroke:#FFFFFF;stroke-width:6;stroke-miterlimit:10;}
</style>
<rect y="0" class="st0" width="360" height="180"/>
<g id="Layer_2" class="st1">
	<g class="st2">
		<rect x="-6.6" y="160" class="st3" width="368.6" height="20"/>
		<rect x="-6.6" y="140" class="st3" width="368.6" height="20"/>
		<rect x="-6.6" class="st3" width="368.6" height="20"/>
	</g>
</g>
<g id="Layer_3" class="st1">
</g>
<g>
	<text transform="matrix(1 0 0 1 208.3199 91.6468)" class="st4 st5 st6">Agregar </text>
	<text transform="matrix(1 0 0 1 208.32 111.6786)" class="st4 st5 st6">Seguimiento</text>
</g>
<path class="st7" d="M113.7,45.1c9.7,0,19.1,0,28.7,0c0,0.7,0.1,1.2,0.1,1.7c0,10.6,0,21.2,0,31.8c0,1.4-0.3,1.9-1.4,2.1
	c-6.1,1-11.8,3.6-17,7.7c-6.1,4.8-11,11.1-14.5,18.9c-4.4,9.7-6,20.1-5.1,31.1c0.7,7.2,2.5,14,5.5,20.3c2.3,4.8,5.1,9.1,8.5,12.7
	c0.5,0.5,0.9,1,1.5,1.7c-24.5,0-48.8,0-73.2,0c0-54.2,0-108.4,0-162.7c22.2,0,44.4,0,66.8,0C113.7,21.8,113.7,33.3,113.7,45.1z"/>
<path class="st7" d="M147.2,92.3c18.6,0.4,32.9,18,32.8,40.2c-0.1,22.8-14.8,40-32.9,39.9c-18.6,0-32.9-18-32.8-40.1
	C114.3,109.8,128.9,92.7,147.2,92.3z M123.3,138.1c6.4,0,12.7,0,19.1,0c0,7.9,0,15.5,0,23.2c3.2,0,6.3,0,9.5,0c0-0.7,0-1.3,0-1.9
	c0-6.6,0-13.2,0-19.8c0-1.2,0.3-1.6,1.3-1.6c5.5,0.1,10.9,0,16.4,0c0.4,0,0.9,0,1.3,0c0-3.9,0-7.6,0-11.4c-0.6,0-1,0-1.5,0
	c-5.4,0-10.7,0-16.1,0c-1,0-1.4-0.3-1.4-1.7c0.1-6.6,0-13.3,0-19.9c0-0.6,0-1.1,0-1.7c-3.3,0-6.3,0-9.5,0c0,0.7,0,1.3,0,1.9
	c0,6.6,0,13.2,0,19.8c0,1.2-0.3,1.6-1.3,1.6c-5.5-0.1-11,0-16.5,0c-0.4,0-0.9,0-1.4,0C123.3,130.5,123.3,134.2,123.3,138.1z"/>
<path class="st7" d="M139.7,33.5c-5.2,0-10.7,0-16.3,0c0-6.8,0-13.6,0-20.1C128.7,20.1,134.3,26.9,139.7,33.5z"/>
<line class="st8" x1="54.4" y1="69.4" x2="103.8" y2="70"/>
<line class="st8" x1="54.3" y1="86.3" x2="103.6" y2="87"/>
<line class="st8" x1="54.1" y1="103.1" x2="103.4" y2="103.7"/>
<line class="st8" x1="54.3" y1="120.6" x2="98.8" y2="121.1"/>
<line class="st8" x1="54.1" y1="136.9" x2="91.4" y2="137.4"/>
</svg>
