<?xml version="1.0" encoding="utf-8"?>
<!-- Generator: Adobe Illustrator 21.0.2, SVG Export Plug-In . SVG Version: 6.00 Build 0)  -->
<svg version="1.1" id="Layer_1" xmlns="http://www.w3.org/2000/svg" xmlns:xlink="http://www.w3.org/1999/xlink" x="0px" y="0px"
	 width="360px" height="180px" viewBox="0 0 360 180" style="enable-background:new 0 0 360 180;" xml:space="preserve">
<style type="text/css">
	.st0{fill:#F2F1F0;}
	.st1{display:none;}
	.st2{display:inline;}
	.st3{fill:none;stroke:#ED2424;stroke-width:0.5;stroke-miterlimit:10;}
	.st4{fill:#0055B8;}
	.st5{font-family:'Leelawadee';}
	.st6{font-size:18px;}
</style>
<rect y="0" class="st0" width="360" height="180"/>
<g id="Layer_2" class="st1">
	<g class="st2">
		<rect x="-6.6" y="160" class="st3" width="368.6" height="20"/>
		<rect x="-6.6" y="140" class="st3" width="368.6" height="20"/>
		<rect x="-6.6" class="st3" width="368.6" height="20"/>
	</g>
</g>
<g id="Layer_3" class="st1">
</g>
<g>
	<text transform="matrix(1 0 0 1 208.3199 91.6468)" class="st4 st5 st6">Consultar </text>
	<text transform="matrix(1 0 0 1 208.32 111.6786)" class="st4 st5 st6">Seguimiento</text>
</g>
<g>
	<path class="st4" d="M112.9,20.9c0,15.6,0,31.4,0,47.3c16.1,0,31.9,0,46.4,0C144.2,52.7,128.5,36.8,112.9,20.9z"/>
	<path class="st4" d="M71.6,33.5c-19,0.3-34.8,16.7-34.5,36c0.3,20,16.6,35.5,37,35.2c19-0.3,34.7-16.6,34.4-35.7
		C108.1,48.5,92.3,33.2,71.6,33.5z M50.7,79.4c-3.9,1.2-8.8-1.8-9.1-5.9c-0.1-1,0.9-2.1,1.4-3.1c0.7,0.8,1.9,1.4,2.2,2.3
		c0.7,2.4,2.2,3.8,4.4,3c1.2-0.4,2.7-2.2,2.7-3.4c0-1.2-1.6-2.4-2.7-3.5c-0.8-0.8-1.8-1.5-2.7-2.2c0.9-0.6,1.9-1.1,2.7-1.9
		c1.1-1.2,2.6-2.5,2.7-3.8c0.1-1-1.7-2.7-2.9-3.1c-2-0.7-3.3,0.6-4.2,2.6c-0.4,1-1.7,1.7-2.6,2.5c-0.3-1.2-1.2-2.6-0.9-3.7
		c0.7-3.8,5.1-6.2,9.1-5.2c3.7,0.9,6.2,5.1,5.2,8.8c-0.4,1.3-1.1,2.6-1.8,4C57.6,72.7,56.2,77.6,50.7,79.4z M70.4,75.6
		c2.2,0,4.3-0.2,6.5,0.1c0.9,0.1,1.7,1.1,2.6,1.7c-0.9,0.7-1.7,1.8-2.7,1.9c-2.9,0.3-5.9,0-8.8,0.1c-2.7,0.1-3.5-1.5-2.7-3.5
		c0.9-2.1,2.4-4.1,3.9-5.9c1.7-2,4-3.5,5.4-5.6c0.9-1.3,0.9-3.5,0.5-5.1c-0.1-0.7-2.4-1.8-3.1-1.4c-1.4,0.6-2.4,2.1-3.5,3.2
		c-0.7,0.7-1.6,1.3-2.3,1.9c-0.4-1-1.2-2-1.1-2.9c0.3-3,2.2-5,5-5.8c2.8-0.8,5.7-0.4,7.8,2c2.2,2.6,2.6,5.7,1,8.5
		c-1.4,2.6-3.8,4.7-5.8,6.9c-1,1.1-2,2.1-3,3.2C70.1,75.1,70.3,75.4,70.4,75.6z M98.7,55.6c0.1,7.2,0.1,14.3-0.1,21.5
		c0,0.8-1.2,1.6-1.8,2.5c-0.6-0.9-1.7-1.8-1.8-2.7c-0.2-4.6-0.1-9.3-0.1-13.8c-1.5-0.5-3.3-0.6-3.4-1.1c-0.2-1,0.3-2.4,0.9-3.4
		c0.9-1.5,1.9-2.9,3.1-4.1c0.5-0.5,1.5-0.8,2.2-0.6C98.2,53.9,98.7,55,98.7,55.6z"/>
	<path class="st4" d="M111.8,75.4c-0.6,6.4-3.1,11.5-9.2,20c4.2,2.9,6.1,8.5,11.9,9.5c0.8,0.1,1.6,1,2.3,1.7
		c7.8,7.7,15.5,15.5,23.3,23.3c2.5,2.5,2.7,5,0.8,6.8c-1.9,1.8-4.1,1.5-6.5-0.9c-7.7-7.7-15.4-15.4-23-23c-0.5-0.5-1.4-1.1-1.5-1.7
		c-0.9-6-6.7-8.2-9.9-12.9c-11.6,9.8-24.6,13-38.9,8.9c-9.8-2.8-17.3-9-22.5-17.7c-10.5-17.6-5.7-40.5,11-52.5
		c9.8-7,20.8-9.1,32.5-6.3c11.7,2.8,20.1,10,26.4,21.3c0-12.2,0-23.4,0-34.9c-27.4,0-54.7,0-82.6,0c0,1.4,0,2.7,0,4.1
		c0,44.6,0,89.3,0,133.9c0,0,0,0,0,0.1c45.9,0,91.7,0,138.4,0c0-0.5,0.1-1,0.1-1.5c0-25.6,0-51.3,0-76.9c0-1.4,0-2.8,0-4.3
		c-1.5-0.1-2.5-0.2-3.6-0.2c-15.1,0-30.2,0.1-45.3-0.1C112.9,72,112.1,72.7,111.8,75.4z M41.6,118.6c10.2,0,20.3,0,30.7,0
		c0,1.3,0,2.2,0,3.5c-10.2,0-20.3,0-30.7,0C41.6,121.1,41.6,119.9,41.6,118.6z M102.8,140.8c-20.3,0-40.4,0-60.8,0
		c0-1.1,0-2.2,0-3.5c20.2,0,40.3,0,60.8,0C102.8,138.5,102.8,139.6,102.8,140.8z"/>
	<path class="st4" d="M25.2,158.5c-0.2,0.1-0.3,0.2-0.5,0.2v0h141.8c-0.1-0.1-0.1-0.1-0.2-0.2C119.2,158.5,72.5,158.5,25.2,158.5z"
		/>
</g>
</svg>
