<?xml version="1.0" encoding="utf-8"?>
<!-- Generator: Adobe Illustrator 21.0.2, SVG Export Plug-In . SVG Version: 6.00 Build 0)  -->
<svg version="1.1" id="Layer_1" xmlns="http://www.w3.org/2000/svg" xmlns:xlink="http://www.w3.org/1999/xlink" x="0px" y="0px"
	 width="360px" height="180px" viewBox="0 0 360 180" style="enable-background:new 0 0 360 180;" xml:space="preserve">
<style type="text/css">
	.st0{fill:#F2F1F0;}
	.st1{fill:#DFA9E9;}
	.st2{display:none;}
	.st3{display:inline;}
	.st4{fill:none;stroke:#ED2424;stroke-width:0.5;stroke-miterlimit:10;}
	.st5{fill:#0055B8;}
	.st6{font-family:'Leelawadee';}
	.st7{font-size:18px;}
	.st8{fill:#EF7622;}
</style>
<rect class="st0" width="360" height="180"/>
<path class="st1" d="M409.7-112.8"/>
<g id="Layer_2" class="st2">
	<g class="st3">
		<rect x="-6.6" y="160" class="st4" width="368.6" height="20"/>
		<rect x="-6.6" y="140" class="st4" width="368.6" height="20"/>
		<rect x="-6.6" class="st4" width="368.6" height="20"/>
	</g>
</g>
<g id="Layer_3" class="st2">
</g>
<g>
	<text transform="matrix(1 0 0 1 203.6201 90)"><tspan x="0" y="0" class="st5 st6 st7">Registro de</tspan><tspan x="9.4" y="21.6" class="st5 st6 st7">Contacto</tspan></text>
</g>
<path class="st8" d="M143.7,170.9c-30.3,0-60.5,0-90.8,0c-0.4-0.1-0.8-0.3-1.2-0.4c-7.2-1.6-12.2-5.9-14.8-13
	c-2-5.3-0.8-10.9-1.2-16.5c3.4,0,6.5,0,9.7,0c1.3,0,2.6,0,3.8-0.3c5.2-1.2,9-6.3,8.6-11.4c-0.5-5.9-4.6-10.3-10.3-10.6
	c-3.4-0.2-6.8-0.1-10.2-0.1c-0.5,0-1,0-1.5,0c0-5.9,0-11.6,0-17.4c0.6,0,1.1,0,1.6,0c3.4,0,6.9,0.1,10.3-0.1
	c5.6-0.3,10.2-5.4,10.1-11.2c-0.1-5.7-4.5-10.7-10.1-11c-3.5-0.2-7.1-0.1-10.6-0.1c-0.4,0-0.9,0-1.4-0.1c0-5.8,0-11.5,0-17.3
	c0.5,0,1,0,1.4,0c3,0,5.9,0,8.9,0c2.9,0,5.5-0.8,7.8-2.7c3.1-2.6,4.7-7.5,3.6-11.2c-1.5-4.9-5.1-8.2-9.6-8.4
	c-3.5-0.2-7.1-0.1-10.6-0.1c-0.5,0-1,0-1.6,0c0-3.7-0.1-7.2,0-10.7C36,19.8,41.9,12.2,50,9.9c1-0.3,1.9-0.5,2.9-0.8
	c30.3,0,60.5,0,90.8,0c0.4,0.1,0.7,0.2,1.1,0.3c5.7,1.2,10.2,4.2,13.3,9.3c2.1,3.5,2.9,7.3,2.9,11.3c0,40,0,80,0,120
	c0,0.7,0,1.5-0.1,2.2c-0.6,7.2-3.9,12.7-10.1,16.1C148.7,169.6,146.1,170.1,143.7,170.9z M131.6,123.6c-0.1-4.6,0.4-9-0.6-13.4
	c-2.2-9.8-10.6-16.5-20.7-16.6c-5.5-0.1-11-0.1-16.4,0c-1.6,0-3.2,0.2-4.8,0.6c-9.6,2.2-16.3,10.6-16.4,20.6c0,2.4,0.1,4.7,0,7.1
	c-0.1,1.4,0.4,1.6,1.6,1.6c18.6,0,37.2,0,55.8,0C130.5,123.6,131,123.6,131.6,123.6z M102.1,87.3c10.4,0.1,18.9-8.5,19-19.1
	c0.1-10.5-8.4-19.3-18.9-19.3c-10.5,0-19.1,8.6-19,19.1C83.2,78.8,91.5,87.2,102.1,87.3z"/>
<path class="st5" d="M35.8,56.3c-2.3,0-4.6,0.1-6.9,0c-2.6-0.2-4.3-1.7-5.1-4.2c-0.8-2.6-0.2-5,1.9-6.6c1-0.8,2.4-1.3,3.7-1.4
	c4.2-0.2,8.3-0.1,12.5,0c3.5,0.1,6,2.7,6,6c0.1,3.4-2.3,6-5.8,6.2C40,56.5,37.9,56.3,35.8,56.3C35.8,56.3,35.8,56.3,35.8,56.3z"/>
<path class="st5" d="M35.7,136c-2.1,0-4.3,0.1-6.4,0c-2.8-0.1-5-2-5.6-4.6c-0.7-2.8,0.4-5.5,2.8-6.8c1-0.5,2.2-0.8,3.3-0.8
	c3.9-0.1,7.9,0,11.9,0c2.7,0,4.7,1.2,5.8,3.7c1,2.2,0.7,4.5-0.9,6.4c-1.2,1.5-2.9,2.2-4.8,2.2C39.7,136,37.7,136,35.7,136
	C35.7,136,35.7,136,35.7,136z"/>
<path class="st5" d="M35.7,83.9c2.2,0,4.3-0.1,6.5,0c2.5,0.1,4.3,1.4,5.3,3.7c1,2.2,0.7,4.5-0.9,6.4c-1.1,1.4-2.6,2.2-4.4,2.2
	c-4.2,0-8.5,0.1-12.7,0c-3.5-0.1-5.9-2.8-5.9-6.2c0-3.4,2.5-6,6-6.1C31.5,83.8,33.6,83.8,35.7,83.9C35.7,83.9,35.7,83.9,35.7,83.9z"
	/>
</svg>
