<?xml version="1.0" encoding="utf-8"?>
<!-- Generator: Adobe Illustrator 21.0.2, SVG Export Plug-In . SVG Version: 6.00 Build 0)  -->
<svg version="1.1" id="Layer_1" xmlns="http://www.w3.org/2000/svg" xmlns:xlink="http://www.w3.org/1999/xlink" x="0px" y="0px"
	 width="360px" height="180px" viewBox="0 0 360 180" style="enable-background:new 0 0 360 180;" xml:space="preserve">
<style type="text/css">
	.st0{fill:#F2F1F0;}
	.st1{fill:#DFA9E9;}
	.st2{display:none;}
	.st3{display:inline;}
	.st4{fill:none;stroke:#ED2424;stroke-width:0.5;stroke-miterlimit:10;}
	.st5{fill:#2174C7;}
	.st6{enable-background:new    ;}
	.st7{fill:#0055B8;}
	.st8{font-family:'Leelawadee';}
	.st9{font-size:18px;}
</style>
<rect class="st0" width="360" height="180"/>
<path class="st1" d="M409.7-112.8"/>
<g id="Layer_2" class="st2">
	<g class="st3">
		<rect x="-6.6" y="160" class="st4" width="368.6" height="20"/>
		<rect x="-6.6" y="140" class="st4" width="368.6" height="20"/>
		<rect x="-6.6" class="st4" width="368.6" height="20"/>
	</g>
</g>
<g id="Layer_3" class="st2">
</g>
<g>
	<path class="st5" d="M24.9,148.6c1.9,0,3.8,0,5.6,0.1c0.8,0,1-0.4,1-1.2c0-2,0-3.9,0-5.9c0-1.2,0.2-1.7,1.4-1.6
		c1.2,0.1,2.5-0.1,3.7,0.1c1.3,0.1,1.7-0.5,1.6-1.9c-0.1-1.7,0.1-3.5,0-5.2c-0.1-1.3,0.4-1.7,1.5-1.6c0.5,0.1,1.1,0,1.7,0
		c35.3,0,70.5,0,105.8,0c2.4,0,2.1-0.2,2.1,2.4c0,1.6,0,3.2,0,4.8c0,1.2,0.4,1.5,1.4,1.5c1.4-0.1,2.8,0,4.1,0c0.9,0,1.2,0.4,1.2,1.4
		c0,1.9,0,3.8,0,5.7c-0.1,1.3,0.4,1.7,1.5,1.6c1.6-0.1,3.2,0,5,0c0,2.7,0,5.2,0,7.8c0,0.2-0.4,0.6-0.7,0.7c-0.4,0.1-0.8,0-1.2,0
		c-44.6,0-89.1,0-133.7,0c-0.6,0-1.3,0.1-1.9,0.1C24.9,154.4,24.9,151.5,24.9,148.6z"/>
	<path class="st5" d="M93.9,9.5c0.8,0.5,1.6,1.1,2.5,1.5c19,10.1,38,20.1,57,30.1c1.3,0.7,1.8,1.5,1.7,3.1c-0.1,2.8,0,2.8-2.6,2.8
		c-39.3,0-78.6,0-117.9,0c-2.5,0-2,0.3-2.2-2.4c-0.2-2.1,0.6-3,2.2-3.9C53.8,30.6,73,20.4,92.3,10.3c0.5-0.3,0.9-0.6,1.4-1
		C93.7,9.5,93.8,9.5,93.9,9.5z"/>
	<path class="st5" d="M86,61.2c0.6,22.5,1.1,44.7,1.7,67.1c-4.7,0-9.3,0-14.1,0c0-1.5,0-3,0-4.6c0.1-5.1,0.3-10.3,0.4-15.4
		c0.2-6.7,0.2-13.4,0.4-20.1c0.2-8.6,0.4-17.3,0.6-25.9c0-0.4,0.5-1.1,0.7-1.1C79.1,61.2,82.5,61.2,86,61.2z"/>
	<path class="st5" d="M61.4,128.5c-2.1,0-4.1,0-6.1,0c-2.1,0-4.2-0.1-6.3,0c-1.2,0.1-1.7-0.3-1.6-1.8c0.2-8.5,0.4-17.1,0.6-25.6
		c0.3-13,0.6-26,0.8-39c0-0.2,0-0.4,0.1-0.9c1,0,2,0,3,0c2.2,0,4.4,0.1,6.6,0c1.1,0,1.4,0.4,1.4,1.6c0.1,3.8,0.2,7.5,0.3,11.3
		c0.2,9.7,0.4,19.3,0.6,29c0.2,8.2,0.5,16.3,0.7,24.5C61.5,127.8,61.5,128,61.4,128.5z"/>
	<path class="st5" d="M99.8,128.5c0.1-1.7,0.2-3.1,0.2-4.5c0.1-4.4,0.2-8.8,0.3-13.3c0.1-6.8,0.2-13.7,0.4-20.5
		c0.2-9.1,0.5-18.2,0.7-27.3c0-1.2,0.4-1.7,1.5-1.7c3.1,0.1,6.2,0,9.3,0c0.1,0.4,0.2,0.7,0.2,1c0.2,7.3,0.4,14.6,0.6,21.9
		c0.3,12.2,0.6,24.5,0.9,36.7c0.1,2.2,0.1,4.3,0.2,6.5c0,0.7-0.1,1.2-0.9,1.2C108.8,128.5,104.4,128.5,99.8,128.5z"/>
	<path class="st5" d="M126.2,128.5c0-1,0-1.9,0-2.8c0.1-4.2,0.2-8.4,0.3-12.6c0.1-6.3,0.2-12.7,0.4-19c0.2-10.5,0.5-21,0.8-31.5
		c0-1,0.3-1.5,1.3-1.4c2.8,0.1,5.6,0,8.4,0c0.9,0,1.3,0.3,1.3,1.4c0.1,7.1,0.3,14.2,0.5,21.3c0.3,11.6,0.6,23.2,0.9,34.9
		c0.1,2.8,0.1,5.7,0.2,8.5c0,0.7,0,1.3-0.9,1.3C135,128.4,130.7,128.5,126.2,128.5z"/>
	<path class="st5" d="M93.8,58.4c-15.7,0-31.3,0-47,0c-2.9,0-2.4,0.3-2.5-2.8c0-1.3,0.1-2.7,0-4c-0.1-1.2,0.4-1.6,1.4-1.5
		c0.4,0,0.7,0,1.1,0c31.5,0,63,0,94.5,0c2.1,0,2.1,0,2.1,2.4c0,1.4-0.1,2.9,0,4.3c0.1,1.3-0.4,1.7-1.5,1.6c-1.2-0.1-2.5,0-3.7,0
		C123.3,58.4,108.5,58.4,93.8,58.4z"/>
</g>
<text transform="matrix(1 0 0 1 200.2867 95.0342)" class="st6"><tspan x="0" y="0" class="st7 st8 st9">Registro de</tspan><tspan x="-6.8" y="21.6" class="st7 st8 st9">Dependencia</tspan></text>
</svg>
