<?xml version="1.0" encoding="utf-8"?>
<!-- Generator: Adobe Illustrator 16.0.0, SVG Export Plug-In . SVG Version: 6.00 Build 0)  -->
<!DOCTYPE svg PUBLIC "-//W3C//DTD SVG 1.1//EN" "http://www.w3.org/Graphics/SVG/1.1/DTD/svg11.dtd">
<svg version="1.1" id="Layer_1" xmlns="http://www.w3.org/2000/svg" xmlns:xlink="http://www.w3.org/1999/xlink" x="0px" y="0px"
	 width="360.008px" height="180px" viewBox="0 0 360.008 180" enable-background="new 0 0 360.008 180" xml:space="preserve">
<g id="Layer_1_1_">
	<rect x="0.058" fill="#F2F1F0" width="360" height="180"/>
	<g>
		<rect x="196.008" y="91.993" fill="none" width="118.552" height="35.104"/>
		<g enable-background="new    ">
			<path fill="#0055B8" d="M204.744,103.838l-1.281-3.484h-4.859l-1.281,3.484h-0.852l4.227-11.203h0.734l4.18,11.203H204.744z
				 M201.307,94.463c-0.058-0.156-0.104-0.31-0.141-0.461c-0.037-0.13-0.076-0.261-0.117-0.391h-0.031
				c-0.089,0.344-0.175,0.622-0.258,0.836l-1.883,5.195h4.32L201.307,94.463z"/>
			<path fill="#0055B8" d="M213.033,103.838v-1.453h-0.031c-0.261,0.505-0.646,0.906-1.156,1.203
				c-0.511,0.297-1.086,0.445-1.727,0.445c-0.984,0-1.788-0.359-2.41-1.078c-0.623-0.719-0.934-1.711-0.934-2.977
				c0-1.292,0.34-2.337,1.02-3.137s1.561-1.199,2.645-1.199c1.197,0,2.052,0.492,2.563,1.477h0.031v-5.125h0.719v11.844H213.033z
				 M213.033,98.971c0-0.745-0.236-1.376-0.707-1.895c-0.472-0.519-1.105-0.777-1.902-0.777c-0.839,0-1.531,0.321-2.078,0.965
				s-0.82,1.527-0.82,2.652c0,1.104,0.246,1.957,0.738,2.559s1.126,0.902,1.902,0.902c0.911,0,1.617-0.282,2.117-0.848
				s0.75-1.254,0.75-2.066V98.971z"/>
			<path fill="#0055B8" d="M226.346,103.838v-4.813c0-1.005-0.158-1.711-0.473-2.117c-0.315-0.406-0.814-0.609-1.496-0.609
				c-0.631,0-1.175,0.271-1.633,0.813c-0.459,0.542-0.688,1.222-0.688,2.039v4.688h-0.719v-4.867c0-1.781-0.678-2.672-2.031-2.672
				c-0.651,0-1.193,0.272-1.625,0.816c-0.433,0.544-0.648,1.249-0.648,2.113v4.609h-0.719v-8h0.719v1.328h0.031
				c0.557-1.016,1.372-1.523,2.445-1.523c0.583,0,1.082,0.168,1.496,0.504s0.693,0.777,0.84,1.324
				c0.25-0.578,0.607-1.027,1.074-1.348c0.466-0.32,0.973-0.48,1.52-0.48c1.75,0,2.625,1.083,2.625,3.25v4.945H226.346z"/>
			<path fill="#0055B8" d="M229.814,93.822c-0.156,0-0.295-0.058-0.414-0.172c-0.12-0.114-0.18-0.261-0.18-0.438
				c0-0.172,0.061-0.312,0.184-0.418c0.122-0.106,0.259-0.16,0.41-0.16c0.161,0,0.303,0.052,0.426,0.156
				c0.122,0.104,0.184,0.245,0.184,0.422c0,0.167-0.061,0.31-0.18,0.43C230.124,93.763,229.98,93.822,229.814,93.822z
				 M229.463,103.838v-8h0.719v8H229.463z"/>
			<path fill="#0055B8" d="M238.182,103.838v-4.656c0-1.922-0.693-2.883-2.078-2.883c-0.771,0-1.404,0.282-1.898,0.848
				c-0.495,0.565-0.742,1.265-0.742,2.098v4.594h-0.719v-8h0.719v1.453h0.031c0.583-1.099,1.494-1.648,2.734-1.648
				c0.864,0,1.525,0.288,1.984,0.863c0.458,0.575,0.688,1.397,0.688,2.465v4.867H238.182z"/>
			<path fill="#0055B8" d="M241.658,93.822c-0.156,0-0.295-0.058-0.414-0.172c-0.12-0.114-0.18-0.261-0.18-0.438
				c0-0.172,0.061-0.312,0.184-0.418c0.122-0.106,0.259-0.16,0.41-0.16c0.161,0,0.303,0.052,0.426,0.156
				c0.122,0.104,0.184,0.245,0.184,0.422c0,0.167-0.061,0.31-0.18,0.43C241.968,93.763,241.824,93.822,241.658,93.822z
				 M241.307,103.838v-8h0.719v8H241.307z"/>
			<path fill="#0055B8" d="M244.174,103.486v-0.867c0.271,0.234,0.599,0.419,0.984,0.555c0.385,0.136,0.719,0.203,1,0.203
				c1.255,0,1.883-0.513,1.883-1.539c0-0.354-0.139-0.656-0.414-0.906c-0.276-0.25-0.725-0.508-1.344-0.773
				c-0.766-0.333-1.304-0.679-1.613-1.035c-0.311-0.356-0.465-0.79-0.465-1.301c0-0.651,0.248-1.177,0.746-1.578
				c0.497-0.401,1.11-0.602,1.84-0.602c0.688,0,1.275,0.141,1.766,0.422v0.813c-0.594-0.386-1.209-0.578-1.844-0.578
				c-0.526,0-0.951,0.137-1.273,0.41c-0.323,0.273-0.484,0.629-0.484,1.066c0,0.38,0.102,0.688,0.305,0.926s0.65,0.509,1.344,0.816
				c0.833,0.375,1.406,0.723,1.719,1.043s0.469,0.746,0.469,1.277c0,0.636-0.238,1.16-0.715,1.574s-1.135,0.621-1.973,0.621
				C245.332,104.033,244.689,103.851,244.174,103.486z"/>
			<path fill="#0055B8" d="M253.963,103.729c-0.375,0.177-0.727,0.266-1.055,0.266c-1.183,0-1.773-0.708-1.773-2.125v-5.375h-1.438
				v-0.656h1.438V93.76c0.114-0.042,0.234-0.083,0.359-0.125c0.125-0.036,0.244-0.075,0.359-0.117v2.32h2.109v0.656h-2.109v5.281
				c0,0.552,0.087,0.952,0.262,1.199c0.174,0.247,0.47,0.371,0.887,0.371c0.297,0,0.617-0.097,0.961-0.289V103.729z"/>
			<path fill="#0055B8" d="M259.322,96.588c-0.24-0.172-0.521-0.258-0.844-0.258c-0.631,0-1.159,0.325-1.586,0.977
				c-0.428,0.651-0.641,1.575-0.641,2.773v3.758h-0.703v-8h0.703v1.773h0.031c0.182-0.609,0.471-1.083,0.867-1.422
				c0.396-0.339,0.854-0.508,1.375-0.508c0.297,0,0.563,0.047,0.797,0.141V96.588z"/>
			<path fill="#0055B8" d="M265.611,103.838v-1.602h-0.031c-0.256,0.547-0.627,0.983-1.113,1.309
				c-0.487,0.325-1.027,0.488-1.621,0.488c-0.761,0-1.362-0.214-1.805-0.641c-0.443-0.427-0.664-0.966-0.664-1.617
				c0-1.396,0.924-2.239,2.773-2.531l2.461-0.367c0-1.719-0.646-2.578-1.938-2.578c-0.881,0-1.737,0.354-2.57,1.063v-0.867
				c0.297-0.234,0.699-0.435,1.207-0.602s0.985-0.25,1.434-0.25c0.822,0,1.459,0.255,1.91,0.766c0.45,0.511,0.676,1.253,0.676,2.227
				v5.203H265.611z M263.408,99.854c-0.839,0.12-1.428,0.313-1.766,0.582c-0.339,0.269-0.508,0.704-0.508,1.309
				c0,0.474,0.157,0.864,0.473,1.172c0.314,0.308,0.754,0.461,1.316,0.461c0.771,0,1.411-0.285,1.922-0.855
				c0.51-0.57,0.766-1.306,0.766-2.207v-0.781L263.408,99.854z"/>
			<path fill="#0055B8" d="M273.916,103.486c-0.594,0.364-1.303,0.547-2.125,0.547c-1.089,0-1.967-0.374-2.633-1.121
				c-0.667-0.747-1-1.726-1-2.934c0-1.271,0.375-2.312,1.125-3.121s1.713-1.215,2.891-1.215c0.609,0,1.2,0.125,1.773,0.375v0.813
				c-0.573-0.354-1.201-0.531-1.883-0.531c-0.938,0-1.698,0.337-2.281,1.012c-0.584,0.675-0.875,1.548-0.875,2.621
				c0,1.036,0.267,1.87,0.801,2.5c0.533,0.63,1.238,0.945,2.113,0.945c0.802,0,1.5-0.214,2.094-0.641V103.486z"/>
			<path fill="#0055B8" d="M276.189,93.822c-0.156,0-0.295-0.058-0.414-0.172c-0.12-0.114-0.18-0.261-0.18-0.438
				c0-0.172,0.061-0.312,0.184-0.418c0.122-0.106,0.259-0.16,0.41-0.16c0.161,0,0.303,0.052,0.426,0.156
				c0.122,0.104,0.184,0.245,0.184,0.422c0,0.167-0.061,0.31-0.18,0.43C276.499,93.763,276.355,93.822,276.189,93.822z
				 M275.838,103.838v-8h0.719v8H275.838z"/>
			<path fill="#0055B8" d="M282.33,104.033c-1.167,0-2.09-0.384-2.77-1.152s-1.02-1.767-1.02-2.996c0-1.328,0.355-2.367,1.066-3.117
				s1.646-1.125,2.809-1.125c1.141,0,2.041,0.372,2.703,1.117c0.661,0.745,0.992,1.776,0.992,3.094c0,1.245-0.338,2.253-1.012,3.023
				C284.425,103.647,283.502,104.033,282.33,104.033z M282.385,96.299c-0.943,0-1.694,0.317-2.254,0.953
				c-0.561,0.636-0.84,1.519-0.84,2.648c0,1.047,0.273,1.888,0.82,2.523s1.294,0.953,2.242,0.953c0.963,0,1.705-0.313,2.227-0.938
				c0.521-0.625,0.781-1.492,0.781-2.602c0-1.141-0.26-2.016-0.777-2.625C284.065,96.604,283.332,96.299,282.385,96.299z
				 M282.064,94.557h-0.703l1.828-2.563h0.813L282.064,94.557z"/>
			<path fill="#0055B8" d="M293.533,103.838v-4.656c0-1.922-0.693-2.883-2.078-2.883c-0.771,0-1.404,0.282-1.898,0.848
				c-0.495,0.565-0.742,1.265-0.742,2.098v4.594h-0.719v-8h0.719v1.453h0.031c0.583-1.099,1.494-1.648,2.734-1.648
				c0.864,0,1.525,0.288,1.984,0.863c0.458,0.575,0.688,1.397,0.688,2.465v4.867H293.533z"/>
		</g>
	</g>
	<path fill="#DFA9E9" d="M180.058,59.156"/>
	<g>
		<g>
			<path fill="#2174C7" d="M146.571,48.904l5.608-9.404l-11.083-8.708l-7.817,7.693c-2.771-1.304-5.698-2.264-8.718-2.857
				l-1.75-10.82l-14.086,0.458l-1.042,10.91c-1.464,0.391-2.923,0.862-4.364,1.442c-1.443,0.576-2.825,1.243-4.151,1.975
				l-8.297-7.164l-10.497,9.404l6.214,9.029c-1.77,2.515-3.221,5.233-4.327,8.092l-10.96-0.153l-1.994,13.951l10.55,2.916
				c0.256,3.007,0.875,6.023,1.891,8.987l-8.488,6.924l7.44,11.971l9.957-4.547c2.182,2.192,4.616,4.09,7.229,5.663l-2.054,10.766
				l13.395,4.387l4.707-9.895c3.022,0.274,6.102,0.188,9.176-0.298l5.343,9.565l13.079-5.246l-2.75-10.606
				c2.555-1.772,4.842-3.84,6.836-6.127l10.244,3.896l6.646-12.43l-8.924-6.354c0.802-2.948,1.25-5.999,1.312-9.093l10.336-3.595
				l-2.898-13.796l-10.918,0.867C150.1,53.859,148.464,51.251,146.571,48.904z M125.524,92.968
				c-11.305,4.536-24.15-0.952-28.685-12.258c-4.537-11.305,0.953-24.149,12.259-28.685c11.306-4.537,24.149,0.951,28.684,12.257
				C142.318,75.59,136.831,88.434,125.524,92.968z"/>
			<path fill="#0055B8" d="M89.579,119.334l5.568-11.01l-6.895-4.975l-8.674,8.762c-1.237-0.295-2.522-0.469-3.853-0.465
				c-1.33,0.004-2.615,0.185-3.853,0.492l-8.75-8.699l-6.862,5.02l5.656,10.957c-1.333,2.167-2.17,4.661-2.361,7.338l-10.974,5.632
				l2.655,8.076l12.16-1.987c1.683,1.971,3.82,3.533,6.258,4.522l1.962,12.16l8.504-0.024l1.863-12.172
				c2.434-1.006,4.561-2.582,6.231-4.564l12.18,1.895l2.6-8.096l-11.013-5.543C91.776,123.979,90.923,121.49,89.579,119.334z
				 M81.62,127.9c0.011,3.229-2.599,5.855-5.827,5.865c-3.228,0.008-5.852-2.599-5.864-5.828c-0.008-3.227,2.599-5.853,5.827-5.862
				C78.985,122.064,81.61,124.675,81.62,127.9z"/>
		</g>
		<path fill="#2174C7" d="M122.112,84.462c-6.609,2.654-14.117-0.556-16.769-7.164c-2.651-6.61,0.558-14.116,7.167-16.769
			c6.609-2.65,14.116,0.557,16.767,7.167C131.93,74.306,128.722,81.813,122.112,84.462z"/>
	</g>
</g>
<g id="Layer_2" display="none">
	<g display="inline">
		<rect x="-6.637" y="160" fill="none" stroke="#ED2424" stroke-width="0.5" stroke-miterlimit="10" width="368.61" height="20"/>
		<rect x="-6.637" y="140" fill="none" stroke="#ED2424" stroke-width="0.5" stroke-miterlimit="10" width="368.61" height="20"/>
		<rect x="-6.637" fill="none" stroke="#ED2424" stroke-width="0.5" stroke-miterlimit="10" width="368.61" height="20"/>
	</g>
</g>
<g id="Layer_3" display="none">
</g>
</svg>
