<?xml version="1.0" encoding="utf-8"?>
<!-- Generator: Adobe Illustrator 21.0.2, SVG Export Plug-In . SVG Version: 6.00 Build 0)  -->
<svg version="1.1" id="Layer_1" xmlns="http://www.w3.org/2000/svg" xmlns:xlink="http://www.w3.org/1999/xlink" x="0px" y="0px"
	 width="540px" height="360px" viewBox="0 0 540 360" style="enable-background:new 0 0 540 360;" xml:space="preserve">
<style type="text/css">
	.st0{fill:#FFFFFF;}
	.st1{display:none;}
	.st2{display:inline;fill:none;stroke:#ED2424;stroke-width:0.5;stroke-miterlimit:10;}
	.st3{fill:#0055B8;}
	.st4{fill:#EF7622;}
	.st5{fill:none;}
</style>
<rect y="-0.3" class="st0" width="540" height="360"/>
<g id="Layer_2" class="st1">
	<rect x="-12" y="320" class="st2" width="552" height="40"/>
	<rect x="-12" y="300" class="st2" width="552" height="20"/>
	<rect x="-12" class="st2" width="552" height="40"/>
</g>
<g id="Layer_3" class="st1">
</g>
<g>
	<g>
		<path class="st3" d="M243,258.1c0-2.3,0.3-4.6,1-6.9l0.5-1.6h-51.8l0.5,1.6c0.7,2.2,1,4.6,1,6.9s-0.3,4.6-1,6.9l-0.5,1.6h51.8
			L244,265C243.3,262.7,243,260.4,243,258.1z"/>
		<path class="st3" d="M170,181.4c-2.1,0-4.3-0.3-6.5-0.9l-1.5-0.4v55.2l1.5-0.4c2.2-0.6,4.3-0.9,6.5-0.9c2.5,0,5,0.4,7.3,1.1
			l1.6,0.5v-55.9l-1.6,0.5C175,181,172.5,181.4,170,181.4z"/>
		<path class="st3" d="M243,46.8c0-2.3,0.3-4.6,1-6.9l0.5-1.6h-51.8l0.5,1.6c0.7,2.3,1,4.6,1,6.9c0,2.3-0.3,4.6-1,6.9l-0.5,1.6h51.8
			l-0.5-1.6C243.3,51.4,243,49.1,243,46.8z"/>
		<path class="st3" d="M193.1,150.4c0.7,2.2,1,4.6,1,6.9c0,2.3-0.3,4.6-1,6.9l-0.5,1.6h51.8l-0.5-1.6c-0.7-2.3-1-4.6-1-6.9
			c0-2.3,0.3-4.6,1-6.9l0.5-1.6h-51.8L193.1,150.4z"/>
		<path class="st3" d="M344.5,148.8h-54.8l0.5,1.6c0.7,2.3,1,4.6,1,6.9c0,2.3-0.3,4.6-1,6.9l-0.5,1.6h54.8l-0.5-1.6
			c-0.7-2.3-1-4.6-1-6.9c0-2.3,0.3-4.6,1-6.9L344.5,148.8z"/>
		<path class="st3" d="M374.6,87c-2.6,0.5-5.1,0.7-7.5,0.7c-2,0-4.2-0.2-6.6-0.6l-1.4-0.2v47.6l1.5-0.4c2.2-0.6,4.3-0.9,6.4-0.9
			c2.5,0,5,0.4,7.3,1.1l1.6,0.5V86.7L374.6,87z"/>
		<path class="st3" d="M289.7,55.2h37.4l-0.2-1.4c-0.4-2.5-0.6-4.8-0.6-7s0.2-4.5,0.6-7l0.2-1.4h-37.4l0.5,1.6c0.7,2.3,1,4.6,1,6.9
			c0,2.3-0.3,4.6-1,6.9L289.7,55.2z"/>
	</g>
	<g>
		<path class="st4" d="M267.1,28.4c-10.2,0-18.4,8.3-18.4,18.4s8.3,18.4,18.4,18.4s18.4-8.3,18.4-18.4
			C285.5,36.6,277.2,28.4,267.1,28.4z"/>
		<path class="st4" d="M267.1,138.8c-10.2,0-18.4,8.3-18.4,18.4c0,10.1,8.3,18.4,18.4,18.4s18.4-8.3,18.4-18.4
			S277.2,138.8,267.1,138.8z"/>
		<path class="st4" d="M267.1,239.6c-10.2,0-18.4,8.3-18.4,18.4c0,10.1,8.3,18.4,18.4,18.4s18.4-8.3,18.4-18.4
			S277.2,239.6,267.1,239.6z"/>
		<path class="st4" d="M170,28.4c-10.2,0-18.4,8.3-18.4,18.4s8.3,18.4,18.4,18.4c10.2,0,18.4-8.3,18.4-18.4S180.2,28.4,170,28.4z"/>
		<path class="st4" d="M170,138.8c-10.2,0-18.4,8.3-18.4,18.4c0,10.1,8.3,18.4,18.4,18.4c10.2,0,18.4-8.3,18.4-18.4
			S180.2,138.8,170,138.8z"/>
		<path class="st4" d="M170,239.6c-10.2,0-18.4,8.3-18.4,18.4c0,10.1,8.3,18.4,18.4,18.4c10.2,0,18.4-8.3,18.4-18.4
			S180.2,239.6,170,239.6z"/>
		<path class="st4" d="M367.2,138.8c-10.2,0-18.4,8.3-18.4,18.4c0,10.1,8.3,18.4,18.4,18.4c10.2,0,18.4-8.3,18.4-18.4
			S377.3,138.8,367.2,138.8z"/>
		<path class="st4" d="M367.2,10.4c-20.1,0-36.4,16.3-36.4,36.4s16.3,36.4,36.4,36.4s36.4-16.3,36.4-36.4S387.2,10.4,367.2,10.4z
			 M367.2,72.3c-14.1,0-25.5-11.5-25.5-25.5c0-14.1,11.4-25.5,25.5-25.5s25.5,11.4,25.5,25.5S381.2,72.3,367.2,72.3z"/>
		<path class="st4" d="M367.2,29c-9.8,0-17.8,8-17.8,17.8s8,17.8,17.8,17.8s17.8-8,17.8-17.8S377,29,367.2,29z"/>
	</g>
</g>
<g>
	<g>
		<rect x="164.8" y="299" class="st5" width="287.2" height="65.9"/>
	</g>
	<path class="st4" d="M167.4,319.8c0.5,0.3,1,0.5,1.6,0.8c0.6,0.2,1.2,0.4,1.8,0.6s1.2,0.3,1.8,0.4c0.6,0.1,1.2,0.1,1.8,0.1
		c2.2,0,3.8-0.3,4.9-1s1.6-1.6,1.6-2.9c0-0.6-0.1-1.1-0.4-1.6c-0.3-0.5-0.7-0.9-1.2-1.3c-0.5-0.4-1.2-0.8-2-1.2
		c-0.8-0.4-1.8-0.8-2.9-1.3c-1.2-0.5-2.3-1-3.2-1.5s-1.6-1-2.2-1.5s-1-1-1.2-1.6c-0.3-0.6-0.4-1.2-0.4-2c0-0.9,0.2-1.8,0.7-2.5
		s1.2-1.4,2-1.9c0.8-0.5,1.8-0.9,3-1.2c1.1-0.3,2.4-0.4,3.6-0.4c2.3,0,4.2,0.2,5.7,0.8v2.3c-1.7-0.8-3.7-1.2-6-1.2
		c-0.9,0-1.7,0.1-2.4,0.2c-0.8,0.2-1.4,0.4-2,0.7s-1,0.7-1.4,1.2c-0.3,0.5-0.5,1-0.5,1.7c0,0.6,0.1,1.1,0.3,1.5
		c0.2,0.4,0.6,0.8,1.1,1.2s1.1,0.8,1.9,1.1c0.8,0.4,1.8,0.8,2.9,1.3c1.2,0.5,2.3,1,3.2,1.5s1.7,1,2.2,1.5c0.6,0.5,1,1.1,1.3,1.7
		c0.3,0.6,0.4,1.2,0.4,2c0,1-0.2,1.9-0.7,2.6c-0.5,0.8-1.1,1.4-2,1.9c-0.8,0.5-1.9,0.9-3,1.1s-2.5,0.4-3.9,0.4c-0.5,0-1,0-1.6-0.1
		c-0.6-0.1-1.3-0.1-1.9-0.3c-0.6-0.1-1.3-0.2-1.8-0.4c-0.6-0.2-1.1-0.3-1.4-0.5L167.4,319.8L167.4,319.8z"/>
	<path class="st4" d="M190.6,315.4c0,1,0.2,1.9,0.5,2.7c0.3,0.8,0.8,1.5,1.4,2c0.6,0.6,1.3,1,2.2,1.3s1.8,0.4,2.9,0.4
		c2.3,0,4.5-0.6,6.6-1.9v2c-2,1.1-4.4,1.7-7.2,1.7c-1.4,0-2.6-0.2-3.8-0.6c-1.1-0.4-2.1-0.9-2.9-1.7c-0.8-0.7-1.4-1.6-1.8-2.7
		c-0.4-1.1-0.6-2.3-0.6-3.6c0-1.2,0.2-2.4,0.7-3.4s1.1-1.9,2-2.7c0.8-0.8,1.8-1.4,3-1.8c1.1-0.4,2.4-0.6,3.8-0.6
		c1.3,0,2.5,0.2,3.5,0.6c1,0.4,1.9,0.9,2.6,1.6s1.2,1.5,1.6,2.5s0.5,2.1,0.5,3.3v1L190.6,315.4L190.6,315.4z M202.9,313.6
		c0-1.7-0.6-3-1.5-4c-1-0.9-2.3-1.4-4.1-1.4c-0.9,0-1.7,0.1-2.4,0.4c-0.7,0.2-1.4,0.6-2,1.1s-1,1-1.4,1.7s-0.6,1.4-0.8,2.2
		C190.6,313.6,202.9,313.6,202.9,313.6z"/>
	<path class="st4" d="M227.7,321.9c0,3-0.9,5.3-2.6,6.7c-1.7,1.5-4.4,2.2-8.1,2.2c-2.3,0-4.4-0.4-6.4-1.2v-2.1
		c2.2,1,4.4,1.5,6.4,1.5c5.4,0,8.1-2.3,8.1-6.8v-2H225c-1.6,2.2-4,3.2-7.3,3.2c-1.3,0-2.4-0.2-3.5-0.6c-1.1-0.4-2-0.9-2.7-1.6
		c-0.8-0.7-1.3-1.6-1.8-2.6c-0.4-1-0.6-2.1-0.6-3.4s0.2-2.6,0.7-3.7c0.4-1.1,1.1-2,1.9-2.8c0.8-0.8,1.8-1.4,3-1.8
		c1.2-0.4,2.5-0.6,3.9-0.6c2.9,0,5,0.9,6.4,2.8h0.1v-2.4h2.6L227.7,321.9L227.7,321.9z M225.1,313.3c0-0.7-0.2-1.3-0.5-1.9
		c-0.3-0.6-0.7-1.1-1.3-1.6s-1.2-0.8-2-1.1c-0.8-0.3-1.6-0.4-2.5-0.4c-1.1,0-2,0.2-2.9,0.5s-1.6,0.8-2.2,1.4
		c-0.6,0.6-1.1,1.3-1.4,2.2c-0.3,0.9-0.5,1.8-0.5,2.9c0,1,0.2,1.9,0.5,2.7c0.3,0.8,0.7,1.5,1.3,2.1c0.6,0.6,1.2,1,2,1.3
		c0.8,0.3,1.7,0.5,2.7,0.5s1.9-0.1,2.8-0.4c0.8-0.3,1.5-0.7,2.1-1.2s1-1.1,1.4-1.8c0.4-0.7,0.5-1.5,0.5-2.3L225.1,313.3L225.1,313.3
		z"/>
	<path class="st4" d="M247.8,323.2v-2.8h-0.1c-1.4,2.1-3.6,3.2-6.5,3.2c-4.9,0-7.4-2.4-7.4-7.1v-9.6h2.6v9.2c0,2,0.4,3.4,1.3,4.3
		c0.9,0.9,2.2,1.4,4,1.4c0.9,0,1.7-0.1,2.4-0.4c0.7-0.3,1.4-0.7,1.9-1.2s0.9-1.1,1.2-1.8c0.3-0.7,0.4-1.5,0.4-2.3v-9.3h2.6v16.4
		L247.8,323.2L247.8,323.2z"/>
	<path class="st4" d="M258.3,302.7c-0.5,0-0.9-0.1-1.3-0.4c-0.4-0.3-0.5-0.6-0.5-1.1c0-0.4,0.2-0.8,0.5-1c0.4-0.3,0.8-0.4,1.3-0.4
		c0.3,0,0.5,0,0.7,0.1c0.2,0.1,0.4,0.2,0.6,0.3c0.2,0.1,0.3,0.3,0.4,0.5c0.1,0.2,0.2,0.4,0.2,0.6s0,0.4-0.1,0.6s-0.2,0.3-0.4,0.5
		c-0.2,0.1-0.4,0.2-0.6,0.3C258.9,302.7,258.6,302.7,258.3,302.7z M257.1,323.2v-16.4h2.6v16.4H257.1z"/>
	<path class="st4" d="M292.3,323.2v-9.6c0-1-0.1-1.8-0.3-2.5c-0.2-0.7-0.5-1.2-0.9-1.7c-0.4-0.4-0.9-0.7-1.5-0.9s-1.3-0.3-2.2-0.3
		c-0.8,0-1.5,0.1-2.1,0.4c-0.7,0.3-1.3,0.7-1.8,1.2s-0.9,1.1-1.2,1.7c-0.3,0.7-0.4,1.4-0.4,2.2v9.5h-2.6v-9.8c0-3.4-1.7-5.1-5-5.1
		c-0.8,0-1.5,0.1-2.1,0.4c-0.7,0.3-1.2,0.7-1.7,1.1c-0.5,0.5-0.9,1.1-1.1,1.8c-0.3,0.7-0.4,1.4-0.4,2.3v9.4h-2.6v-16.4h2.6v2.7h0.1
		c1.5-2,3.6-3,6.4-3c0.7,0,1.4,0.1,2.1,0.3c0.6,0.2,1.2,0.4,1.7,0.7s1,0.7,1.3,1.1c0.4,0.4,0.6,0.9,0.8,1.4c0.7-1.2,1.7-2,2.8-2.7
		c1.2-0.6,2.5-0.9,3.9-0.9c4.5,0,6.8,2.2,6.8,6.6v10.1L292.3,323.2L292.3,323.2z"/>
	<path class="st4" d="M302.3,302.7c-0.5,0-0.9-0.1-1.3-0.4s-0.5-0.6-0.5-1.1c0-0.4,0.2-0.8,0.5-1s0.8-0.4,1.3-0.4
		c0.3,0,0.5,0,0.7,0.1c0.2,0.1,0.4,0.2,0.6,0.3c0.2,0.1,0.3,0.3,0.4,0.5s0.2,0.4,0.2,0.6s0,0.4-0.1,0.6s-0.2,0.3-0.4,0.5
		c-0.2,0.1-0.4,0.2-0.6,0.3C302.9,302.7,302.6,302.7,302.3,302.7z M301.1,323.2v-16.4h2.6v16.4H301.1z"/>
	<path class="st4" d="M311.5,315.4c0,1,0.2,1.9,0.5,2.7c0.3,0.8,0.8,1.5,1.4,2c0.6,0.6,1.3,1,2.2,1.3s1.8,0.4,2.9,0.4
		c2.3,0,4.5-0.6,6.6-1.9v2c-2,1.1-4.4,1.7-7.2,1.7c-1.4,0-2.6-0.2-3.8-0.6c-1.1-0.4-2.1-0.9-2.9-1.7c-0.8-0.7-1.4-1.6-1.8-2.7
		c-0.4-1.1-0.6-2.3-0.6-3.6c0-1.2,0.2-2.4,0.7-3.4s1.1-1.9,2-2.7c0.8-0.8,1.8-1.4,3-1.8c1.1-0.4,2.4-0.6,3.8-0.6
		c1.3,0,2.5,0.2,3.5,0.6c1,0.4,1.9,0.9,2.6,1.6s1.2,1.5,1.6,2.5s0.5,2.1,0.5,3.3v1L311.5,315.4L311.5,315.4z M323.8,313.6
		c0-1.7-0.6-3-1.5-4c-1-0.9-2.3-1.4-4.1-1.4c-0.9,0-1.7,0.1-2.4,0.4c-0.7,0.2-1.4,0.6-2,1.1s-1,1-1.4,1.7s-0.6,1.4-0.8,2.2
		C311.6,313.6,323.8,313.6,323.8,313.6z"/>
	<path class="st4" d="M345.5,323.2v-9.4c0-3.7-1.7-5.5-5.1-5.5c-0.9,0-1.7,0.1-2.5,0.4s-1.4,0.7-2,1.2s-1,1.1-1.3,1.8
		c-0.3,0.7-0.5,1.4-0.5,2.2v9.4h-2.6v-16.4h2.6v2.8h0.1c1.5-2.2,3.8-3.2,6.9-3.2c2.3,0,4,0.6,5.2,1.7c1.2,1.2,1.8,2.8,1.8,5v10
		H345.5L345.5,323.2z"/>
	<path class="st4" d="M363.2,323c-0.9,0.4-1.9,0.5-2.9,0.5c-3.3,0-5-1.5-5-4.6v-10.3h-3.6v-1.8h3.6v-4.1l2.6-0.7v4.8h5.3v1.8h-5.3
		v10c0,1.1,0.2,1.9,0.7,2.4s1.2,0.7,2.3,0.7c0.8,0,1.6-0.2,2.3-0.6V323L363.2,323z"/>
	<path class="st4" d="M375.5,323.6c-1.5,0-2.9-0.2-4.1-0.6c-1.2-0.4-2.3-1-3.1-1.7c-0.9-0.7-1.5-1.6-2-2.7c-0.5-1-0.7-2.2-0.7-3.4
		c0-1.4,0.2-2.6,0.7-3.7c0.5-1.1,1.2-2,2.1-2.7c0.9-0.8,2-1.3,3.2-1.7c1.3-0.4,2.7-0.6,4.2-0.6s2.8,0.2,4,0.6c1.2,0.4,2.2,1,3,1.7
		s1.5,1.6,1.9,2.7c0.4,1.1,0.7,2.3,0.7,3.6s-0.2,2.4-0.7,3.5c-0.5,1-1.1,2-2,2.7c-0.9,0.8-1.9,1.3-3.1,1.8
		C378.5,323.4,377.1,323.6,375.5,323.6z M375.7,308.2c-1.1,0-2.2,0.2-3.1,0.5s-1.7,0.8-2.4,1.3c-0.7,0.6-1.2,1.3-1.5,2.2
		c-0.4,0.9-0.5,1.8-0.5,2.9c0,1,0.2,1.9,0.5,2.8c0.3,0.8,0.8,1.5,1.5,2.1c0.6,0.6,1.4,1,2.3,1.3s1.9,0.5,3.1,0.5s2.2-0.2,3.1-0.5
		s1.6-0.7,2.3-1.3c0.6-0.6,1.1-1.3,1.4-2.1s0.5-1.8,0.5-2.9c0-2.2-0.6-3.9-1.9-5.1C379.8,308.8,378,308.2,375.7,308.2z"/>
</g>
</svg>
